<svg xmlns="http://www.w3.org/2000/svg" viewBox="0 0 183.24 33.83"><defs><style>.cls-1{fill:#fff;}</style></defs><title>HPVfoundation_LOGO_white</title><g id="Capa_2" data-name="Capa 2"><g id="Capa_1-2" data-name="Capa 1"><path class="cls-1" d="M1.26,6.55c0,1.87,1.07,2.56,2.18,2.56a2.13,2.13,0,0,0,2-1.26A.6.6,0,0,1,5.9,7.5.45.45,0,0,1,6.35,8a1.27,1.27,0,0,1-.23.62A2.91,2.91,0,0,1,3.38,10C1.09,10,.06,8.37.06,6.31s1.05-3.64,3.3-3.64A3,3,0,0,1,6.48,5.79c0,.76-.56.76-1,.76Zm4-.81a2.61,2.61,0,0,0-.35-1.32,1.79,1.79,0,0,0-1.61-.89A1.91,1.91,0,0,0,1.59,4.58a3.14,3.14,0,0,0-.32,1.16Z"/><path class="cls-1" d="M13.83,9c0,.39,0,.65-.16.8a.66.66,0,0,1-.42.16.64.64,0,0,1-.43-.16c-.16-.15-.16-.41-.16-.8V5.69a2.61,2.61,0,0,0-.22-1.32,1.4,1.4,0,0,0-1.23-.68,2,2,0,0,0-1.67,1c-.2.37-.32.66-.32,2.13V9c0,.39,0,.65-.18.8a.61.61,0,0,1-.41.16.7.7,0,0,1-.42-.16c-.16-.15-.16-.41-.16-.8V3.6c0-.38,0-.62.15-.77a.62.62,0,0,1,.41-.16.52.52,0,0,1,.46.25c.11.19.12.37.12,1a2.63,2.63,0,0,1,2.21-1.2,2.49,2.49,0,0,1,2,.86,2.82,2.82,0,0,1,.46,1.82Z"/><path class="cls-1" d="M18.13,10a3,3,0,0,1-2.21-.74A1.79,1.79,0,0,1,15.33,8a.5.5,0,0,1,.51-.48c.31,0,.43.21.54.46a1.76,1.76,0,0,0,1.83,1.11c1.08,0,1.63-.55,1.63-1.11,0-.87-.9-1.08-1.6-1.26A5,5,0,0,1,16,5.92a1.66,1.66,0,0,1-.61-1.26,2,2,0,0,1,1-1.66,3.3,3.3,0,0,1,1.59-.33c2.29,0,2.65,1.43,2.65,1.68a.47.47,0,0,1-.5.49c-.32,0-.4-.15-.58-.53a1.55,1.55,0,0,0-1.55-.81c-.86,0-1.52.35-1.52,1s.39.87,2,1.22c1.06.23,2.51.62,2.51,2.06C21.07,8.38,20.76,10,18.13,10Z"/><path class="cls-1" d="M23.44,6.55c0,1.87,1.08,2.56,2.18,2.56a2.13,2.13,0,0,0,2-1.26.6.6,0,0,1,.5-.35.45.45,0,0,1,.44.45,1.27,1.27,0,0,1-.23.62A2.9,2.9,0,0,1,25.57,10c-2.29,0-3.33-1.6-3.33-3.66s1.05-3.64,3.3-3.64a3.06,3.06,0,0,1,3.13,3.12c0,.76-.57.76-1,.76Zm4-.81a2.83,2.83,0,0,0-.35-1.32,1.81,1.81,0,0,0-1.62-.89,1.93,1.93,0,0,0-1.73,1.05,3.14,3.14,0,0,0-.32,1.16Z"/><path class="cls-1" d="M39.58,9c0,.42,0,.63-.15.79A.59.59,0,0,1,39,10c-.59,0-.59-.54-.59-1V5.4c0-.62,0-1.71-1.25-1.71a1.65,1.65,0,0,0-1.41.73,2.39,2.39,0,0,0-.31,1.33V9c0,.42,0,.63-.14.79a.65.65,0,0,1-.43.18.67.67,0,0,1-.45-.18c-.15-.16-.15-.37-.15-.79V5.27c0-.45,0-1.58-1.24-1.58a1.6,1.6,0,0,0-1.44.81,3.47,3.47,0,0,0-.3,1.68V9c0,.42,0,.63-.14.79a.65.65,0,0,1-.43.18.67.67,0,0,1-.45-.18c-.15-.16-.15-.37-.15-.79V3.62c0-.44,0-1,.53-1a.5.5,0,0,1,.48.35,2.79,2.79,0,0,1,0,.78,2.48,2.48,0,0,1,2.12-1.13,2.26,2.26,0,0,1,1.62.59,1.81,1.81,0,0,1,.36.63,2.46,2.46,0,0,1,2.15-1.22,2.1,2.1,0,0,1,1.91,1A3,3,0,0,1,39.58,5Z"/><path class="cls-1" d="M42.57,9.18c0,.2,0,.79-.56.79a.57.57,0,0,1-.41-.16c-.16-.14-.16-.38-.16-.77V1c0-.44,0-1,.6-1s.57.51.57,1v2.9a3.1,3.1,0,0,1,2.47-1.21c2.41,0,3.09,2.1,3.09,3.58S47.59,10,45.05,10a3,3,0,0,1-2.48-1.21ZM47,6.26c0-1.52-.8-2.68-2.1-2.68-.72,0-2.27.43-2.27,2.81,0,2,1.17,2.66,2.22,2.66S47,8.35,47,6.26Z"/><path class="cls-1" d="M51,9c0,.42,0,.62-.17.78a.57.57,0,0,1-.43.18c-.58,0-.58-.51-.58-1V1c0-.42,0-.63.15-.78A.58.58,0,0,1,50.36,0a.7.7,0,0,1,.43.17c.15.17.17.4.17.8Z"/><path class="cls-1" d="M53.77,6.55c0,1.87,1.08,2.56,2.19,2.56a2.1,2.1,0,0,0,2-1.26.62.62,0,0,1,.5-.35.45.45,0,0,1,.45.45,1.27,1.27,0,0,1-.23.62A2.91,2.91,0,0,1,55.9,10c-2.29,0-3.33-1.6-3.33-3.66s1-3.64,3.31-3.64A3,3,0,0,1,59,5.79c0,.76-.56.76-1,.76Zm4-.81a2.61,2.61,0,0,0-.35-1.32,1.8,1.8,0,0,0-1.62-.89,1.91,1.91,0,0,0-1.72,1.05,3.14,3.14,0,0,0-.32,1.16Z"/><path class="cls-1" d="M65.78,10a3.08,3.08,0,0,1-3-1.56,4.37,4.37,0,0,1-.52-2.22c0-1.67.72-3.8,3.45-3.8a3,3,0,0,1,2.79,1.38,1.37,1.37,0,0,1,.25.68.55.55,0,0,1-.55.53c-.15,0-.3,0-.58-.49a2.07,2.07,0,0,0-1.89-1.15c-1.36,0-2.25,1.08-2.25,2.8S64.34,9,65.71,9a2.1,2.1,0,0,0,1.86-1l.36-.64a.53.53,0,0,1,.41-.23.56.56,0,0,1,.56.56A3,3,0,0,1,65.78,10Z"/><path class="cls-1" d="M73.55,10a3.33,3.33,0,0,1-3.41-3.65c0-2.53,1.29-3.93,3.41-3.93C75.38,2.4,77,3.52,77,6.19S75.37,10,73.55,10Zm0-6.63c-1.38,0-2.18,1.13-2.18,2.84S72.19,9,73.56,9s2.16-1.12,2.16-2.84S74.86,3.35,73.56,3.35Z"/><path class="cls-1" d="M84.59,9c0,.41,0,.68-.17.83A.62.62,0,0,1,84,10a.7.7,0,0,1-.45-.17c-.17-.15-.17-.42-.17-.83V5.53a2.85,2.85,0,0,0-.22-1.37,1.46,1.46,0,0,0-1.27-.7,2,2,0,0,0-1.73,1c-.21.38-.34.68-.34,2.21V9c0,.41,0,.68-.18.83a.62.62,0,0,1-.43.17.69.69,0,0,1-.44-.17c-.17-.15-.17-.42-.17-.83V3.37c0-.4,0-.65.16-.8a.69.69,0,0,1,.43-.17.56.56,0,0,1,.48.27c.11.19.12.37.12,1A2.72,2.72,0,0,1,82.07,2.4a2.59,2.59,0,0,1,2.05.89,3,3,0,0,1,.47,1.89Z"/><path class="cls-1" d="M86.82,1.34c0-.53,0-.69.1-.87a.63.63,0,0,1,.51-.28c.61,0,.61.56.61,1.08v1.3h.64c.3,0,.76,0,.76.43s-.34.45-.71.45H88v4.3c0,.73,0,1.23.73,1.23.11,0,.61-.08.71-.08a.4.4,0,0,1,.42.43c0,.48-.62.6-1.37.6-1.71,0-1.71-1.18-1.71-2.08V3.45h-.46c-.54,0-.54-.42-.54-.45,0-.43.5-.43.65-.43h.35Z"/><path class="cls-1" d="M90.86,3.17c0-.34,0-.77.53-.77s.52.43.52.77v.56c.49-.76.87-1.33,1.76-1.33.6,0,1.44.31,1.44.83a.55.55,0,0,1-.49.55c-.3,0-.47-.2-1-.2-1.3,0-1.54,1.41-1.54,3.07V9.28c0,.61-.42.7-.6.7A.64.64,0,0,1,91,9.81c-.18-.15-.18-.41-.18-.83Z"/><path class="cls-1" d="M96.89,6.43c0,1.94,1.11,2.65,2.26,2.65a2.2,2.2,0,0,0,2-1.3.66.66,0,0,1,.52-.36.47.47,0,0,1,.46.46,1.35,1.35,0,0,1-.24.64A3,3,0,0,1,99.09,10c-2.37,0-3.45-1.67-3.45-3.81S96.73,2.4,99.07,2.4a3.17,3.17,0,0,1,3.24,3.24c0,.79-.59.79-1.08.79Zm4.18-.84a2.83,2.83,0,0,0-.37-1.37A1.88,1.88,0,0,0,99,3.29a2,2,0,0,0-1.78,1.1,3.19,3.19,0,0,0-.34,1.2Z"/><path class="cls-1" d="M11.36,17A1.77,1.77,0,0,0,10,16.45,1.69,1.69,0,0,0,8.73,17a2.22,2.22,0,0,0-.49,1.52v3.19H3.61V18.53A2.17,2.17,0,0,0,3.11,17a1.74,1.74,0,0,0-1.32-.55A1.7,1.7,0,0,0,.47,17,2.27,2.27,0,0,0,0,18.53V28.68A2.22,2.22,0,0,0,.48,30.2a1.69,1.69,0,0,0,1.31.57,1.77,1.77,0,0,0,1.32-.55,2.21,2.21,0,0,0,.5-1.54V24.85H8.24v3.83a2.22,2.22,0,0,0,.48,1.52,1.71,1.71,0,0,0,1.32.57,1.75,1.75,0,0,0,1.31-.55,2.16,2.16,0,0,0,.5-1.54V18.53A2.16,2.16,0,0,0,11.36,17Z"/><path class="cls-1" d="M14,21.81c0-.54,0-.87.22-1.07a.81.81,0,0,1,.58-.23.84.84,0,0,1,.55.22c.22.21.22.54.22,1.08v4.35a3.45,3.45,0,0,0,.31,1.8,1.94,1.94,0,0,0,1.65.94,2.61,2.61,0,0,0,2.24-1.3c.21-.41.41-.79.41-2.88V21.81c0-.53,0-.87.22-1.07a.85.85,0,0,1,.55-.23.92.92,0,0,1,.58.22c.22.21.22.54.22,1.08V29c0,.5,0,.82-.22,1a.79.79,0,0,1-.54.22.71.71,0,0,1-.63-.34,3.12,3.12,0,0,1-.13-1.28,3.55,3.55,0,0,1-3,1.62,3.13,3.13,0,0,1-2.76-1.37A4.15,4.15,0,0,1,14,26.78Z"/><path class="cls-1" d="M36.89,29c0,.56,0,.85-.19,1.06a.86.86,0,0,1-.58.24c-.79,0-.79-.72-.79-1.32V24.16c0-.82,0-2.28-1.68-2.28a2.2,2.2,0,0,0-1.87,1,3.1,3.1,0,0,0-.41,1.78V29c0,.56,0,.85-.2,1.06a.91.91,0,0,1-.58.24A.89.89,0,0,1,30,30c-.2-.21-.2-.5-.2-1.06V24c0-.59,0-2.1-1.66-2.1A2.11,2.11,0,0,0,26.22,23a4.58,4.58,0,0,0-.4,2.25V29c0,.56,0,.85-.2,1.06a.86.86,0,0,1-.57.24.89.89,0,0,1-.6-.24c-.2-.21-.2-.5-.2-1.06V21.79c0-.6,0-1.28.71-1.28a.67.67,0,0,1,.64.47,3.36,3.36,0,0,1,.06,1,3.29,3.29,0,0,1,2.83-1.51,3,3,0,0,1,2.16.79,2.33,2.33,0,0,1,.48.85A3.29,3.29,0,0,1,34,20.51a2.79,2.79,0,0,1,2.54,1.31,4,4,0,0,1,.34,1.82Z"/><path class="cls-1" d="M41.84,30.27a2.71,2.71,0,0,1-3-2.67c0-2.12,2-2.54,3.06-2.75.41-.09,2.27-.42,2.63-.51a8.54,8.54,0,0,0,.88-.27c0-1.24-.07-2.41-2.13-2.41A2.67,2.67,0,0,0,40.63,23c-.16.41-.28.75-.77.75a.68.68,0,0,1-.7-.66c0-.54.61-2.54,4-2.54,3.56,0,3.79,1.69,3.79,3.85,0,.47-.05,2.52-.05,2.94a3.88,3.88,0,0,0,.25,1.55,3.55,3.55,0,0,1,.18.81.72.72,0,0,1-.75.61c-.62,0-.87-.87-1-1.53A5.08,5.08,0,0,1,41.84,30.27Zm2.52-4.75c-1.11.25-2,.37-2.74.57a1.45,1.45,0,0,0-1.2,1.41A1.6,1.6,0,0,0,42.2,29,3.3,3.3,0,0,0,45,27.69a5.07,5.07,0,0,0,.4-2.5A7,7,0,0,1,44.36,25.52Z"/><path class="cls-1" d="M57.57,29c0,.52,0,.86-.22,1.06a.79.79,0,0,1-.55.22.86.86,0,0,1-.58-.22C56,29.85,56,29.51,56,29V24.54a3.66,3.66,0,0,0-.28-1.76,1.87,1.87,0,0,0-1.64-.9,2.61,2.61,0,0,0-2.24,1.29c-.27.49-.43.89-.43,2.85v3c0,.52,0,.86-.23,1.06a.83.83,0,0,1-.56.22.89.89,0,0,1-.56-.22c-.21-.2-.21-.54-.21-1.06V21.75c0-.5,0-.83.19-1a.91.91,0,0,1,.56-.22.7.7,0,0,1,.61.34c.15.25.17.49.17,1.26a3.46,3.46,0,0,1,2.95-1.6A3.31,3.31,0,0,1,57,21.66a3.79,3.79,0,0,1,.61,2.43Z"/><path class="cls-1" d="M70.22,19.19a3.67,3.67,0,0,0-1-1.44,4,4,0,0,0-1.57-.84,9.44,9.44,0,0,0-2.42-.24H61.89a2.29,2.29,0,0,0-1.6.5,2.09,2.09,0,0,0-.56,1.6V28.7a2.21,2.21,0,0,0,.49,1.51,1.73,1.73,0,0,0,1.32.56,1.66,1.66,0,0,0,1.3-.57,2.13,2.13,0,0,0,.5-1.52V25.53h1.89a6,6,0,0,0,3.94-1.13A4.16,4.16,0,0,0,70.56,21,4.75,4.75,0,0,0,70.22,19.19Zm-2.82,1.9a1.48,1.48,0,0,1-.26.92,1.4,1.4,0,0,1-.79.49,5.44,5.44,0,0,1-1.59.19H63.32V19.5h1.44c1.53,0,2,.29,2.23.46A1.55,1.55,0,0,1,67.4,21.09Z"/><path class="cls-1" d="M74.61,30.27a2.71,2.71,0,0,1-3-2.67c0-2.12,2-2.54,3.06-2.75.41-.09,2.27-.42,2.63-.51a7.85,7.85,0,0,0,.88-.27c0-1.24-.07-2.41-2.12-2.41A2.66,2.66,0,0,0,73.41,23c-.16.41-.29.75-.78.75a.68.68,0,0,1-.7-.66c0-.54.61-2.54,4-2.54,3.56,0,3.8,1.69,3.8,3.85,0,.47-.06,2.52-.06,2.94a3.83,3.83,0,0,0,.26,1.55,4.2,4.2,0,0,1,.18.81.73.73,0,0,1-.76.61c-.61,0-.86-.87-1-1.53A5.13,5.13,0,0,1,74.61,30.27Zm2.52-4.75c-1.11.25-2,.37-2.73.57a1.45,1.45,0,0,0-1.21,1.41A1.61,1.61,0,0,0,75,29a3.3,3.3,0,0,0,2.81-1.35,5.07,5.07,0,0,0,.4-2.5A6.66,6.66,0,0,1,77.13,25.52Z"/><path class="cls-1" d="M87.29,20.51c3.38,0,4.16,3.17,4.16,5,0,2-.9,4.79-4.13,4.79A4.09,4.09,0,0,1,84,28.65v3.87c0,.63,0,1.31-.78,1.31s-.79-.7-.79-1.29V21.75c0-.52,0-.84.22-1a.73.73,0,0,1,.54-.22c.75,0,.75.79.75,1.06v.56A4,4,0,0,1,87.29,20.51ZM84,25.3C84,28.47,86.08,29,87,29c1.74,0,2.8-1.54,2.8-3.58,0-2.79-1.63-3.73-2.86-3.73C85.58,21.73,84,22.63,84,25.3Z"/><path class="cls-1" d="M94.38,19a.88.88,0,1,1,.86-.88A.87.87,0,0,1,94.38,19Zm.79,10a2.08,2.08,0,0,1-.07.77.74.74,0,0,1-.72.51c-.78,0-.79-.72-.79-1.28v-7.2c0-.56,0-.83.21-1.05a.84.84,0,0,1,.6-.23.64.64,0,0,1,.66.36,2.35,2.35,0,0,1,.11.92Z"/><path class="cls-1" d="M99.49,29c0,.56,0,.83-.22,1a.78.78,0,0,1-.57.24c-.78,0-.78-.69-.78-1.28V18.24c0-.56,0-.85.2-1a.79.79,0,0,1,.58-.26.86.86,0,0,1,.57.24c.2.21.22.52.22,1.06Z"/><path class="cls-1" d="M103.81,29c0,.56,0,.83-.22,1a.78.78,0,0,1-.57.24c-.78,0-.78-.69-.78-1.28V18.24c0-.56,0-.85.2-1a.79.79,0,0,1,.58-.26.86.86,0,0,1,.57.24c.2.21.22.52.22,1.06Z"/><path class="cls-1" d="M110.33,30.27c-2.94,0-4.4-2.16-4.4-4.7,0-3.26,1.66-5.06,4.4-5.06,2.35,0,4.39,1.44,4.39,4.88S112.67,30.27,110.33,30.27Zm0-8.54c-1.78,0-2.8,1.46-2.8,3.66s1,3.65,2.8,3.65,2.78-1.44,2.78-3.65S112,21.73,110.34,21.73Z"/><path class="cls-1" d="M129.32,29c0,.56,0,.85-.2,1.06a.82.82,0,0,1-.58.24c-.79,0-.79-.72-.79-1.32V24.16c0-.82,0-2.28-1.67-2.28a2.18,2.18,0,0,0-1.87,1,3.11,3.11,0,0,0-.42,1.78V29c0,.56,0,.85-.2,1.06a.86.86,0,0,1-.57.24.89.89,0,0,1-.6-.24c-.2-.21-.2-.5-.2-1.06V24c0-.59,0-2.1-1.65-2.1A2.13,2.13,0,0,0,118.64,23a4.57,4.57,0,0,0-.39,2.25V29c0,.56,0,.85-.2,1.06a.91.91,0,0,1-.58.24.87.87,0,0,1-.59-.24c-.2-.21-.2-.5-.2-1.06V21.79c0-.6,0-1.28.7-1.28A.68.68,0,0,1,118,21a4,4,0,0,1,0,1,3.3,3.3,0,0,1,2.83-1.51,3,3,0,0,1,2.16.79,2.24,2.24,0,0,1,.49.85,3.26,3.26,0,0,1,2.88-1.64A2.81,2.81,0,0,1,129,21.82a4,4,0,0,1,.34,1.82Z"/><path class="cls-1" d="M134.27,30.27a2.72,2.72,0,0,1-3-2.67c0-2.12,2-2.54,3.06-2.75.42-.09,2.27-.42,2.63-.51a7.85,7.85,0,0,0,.88-.27c0-1.24-.07-2.41-2.12-2.41a2.67,2.67,0,0,0-2.63,1.3c-.16.41-.29.75-.77.75a.68.68,0,0,1-.71-.66c0-.54.61-2.54,4-2.54,3.56,0,3.8,1.69,3.8,3.85,0,.47,0,2.52,0,2.94a3.88,3.88,0,0,0,.25,1.55,4.2,4.2,0,0,1,.18.81.72.72,0,0,1-.76.61c-.61,0-.86-.87-1-1.53A5.12,5.12,0,0,1,134.27,30.27Zm2.52-4.75c-1.12.25-2,.37-2.74.57a1.45,1.45,0,0,0-1.21,1.41A1.61,1.61,0,0,0,134.62,29a3.29,3.29,0,0,0,2.81-1.35,5.07,5.07,0,0,0,.4-2.5A6.83,6.83,0,0,1,136.79,25.52Z"/><path class="cls-1" d="M152.72,17.31a1.9,1.9,0,0,0-.63-.63,1.77,1.77,0,0,0-.87-.23,1.6,1.6,0,0,0-1,.33,1.74,1.74,0,0,0-.52.67q-.12.29-.36,1l-2.45,7.3-2.44-7.24a5.91,5.91,0,0,0-.63-1.42,1.53,1.53,0,0,0-1.36-.63,1.67,1.67,0,0,0-1.26.52,1.6,1.6,0,0,0-.51,1.16,2.86,2.86,0,0,0,.07.54c.05.2.1.38.16.55s.11.28.16.43L144.11,28c.11.32.23.63.34.92a4.17,4.17,0,0,0,.44.87,2.22,2.22,0,0,0,.76.7,2.29,2.29,0,0,0,1.14.27,2.19,2.19,0,0,0,1.14-.28,2.26,2.26,0,0,0,.75-.69,4.62,4.62,0,0,0,.44-.86l.34-.94,3.11-8.41.16-.44a4.74,4.74,0,0,0,.15-.5,2.09,2.09,0,0,0,.07-.53A1.61,1.61,0,0,0,152.72,17.31Z"/><path class="cls-1" d="M155.16,19a.88.88,0,1,1,.87-.88A.87.87,0,0,1,155.16,19Zm.8,10a1.78,1.78,0,0,1-.08.77.74.74,0,0,1-.72.51c-.77,0-.79-.72-.79-1.28v-7.2c0-.56,0-.83.22-1.05a.81.81,0,0,1,.59-.23.65.65,0,0,1,.67.36,2.35,2.35,0,0,1,.11.92Z"/><path class="cls-1" d="M158.71,21.5c0-.43,0-1,.68-1s.67.56.67,1v.72c.63-1,1.12-1.71,2.27-1.71.77,0,1.85.4,1.85,1.06a.72.72,0,0,1-.63.72c-.39,0-.61-.27-1.29-.27-1.68,0-2,1.82-2,4v3.39c0,.79-.54.9-.78.9a.78.78,0,0,1-.56-.22c-.23-.2-.23-.52-.23-1.06Z"/><path class="cls-1" d="M165.76,21.81c0-.54,0-.87.22-1.07a.81.81,0,0,1,.58-.23.87.87,0,0,1,.55.22c.22.21.22.54.22,1.08v4.35a3.45,3.45,0,0,0,.31,1.8,1.93,1.93,0,0,0,1.65.94,2.61,2.61,0,0,0,2.24-1.3c.21-.41.41-.79.41-2.88V21.81c0-.53,0-.87.22-1.07a.85.85,0,0,1,.55-.23.92.92,0,0,1,.58.22c.22.21.22.54.22,1.08V29c0,.5,0,.82-.22,1a.79.79,0,0,1-.54.22.71.71,0,0,1-.63-.34,3.12,3.12,0,0,1-.13-1.28,3.55,3.55,0,0,1-3,1.62,3.12,3.12,0,0,1-2.76-1.37,4.15,4.15,0,0,1-.45-2.12Z"/><path class="cls-1" d="M179.32,30.27a3.9,3.9,0,0,1-2.95-1,2.42,2.42,0,0,1-.8-1.59.68.68,0,0,1,.69-.64c.41,0,.57.28.72.61a2.37,2.37,0,0,0,2.45,1.49c1.44,0,2.18-.74,2.18-1.49,0-1.15-1.21-1.44-2.15-1.68-1.92-.48-2.41-.7-2.93-1.13a2.2,2.2,0,0,1-.81-1.68A2.61,2.61,0,0,1,177.09,21a4.28,4.28,0,0,1,2.12-.45c3.06,0,3.55,1.91,3.55,2.25a.63.63,0,0,1-.67.65c-.43,0-.54-.2-.77-.7a2.06,2.06,0,0,0-2.07-1.08c-1.16,0-2,.46-2,1.31s.52,1.17,2.69,1.64c1.42.3,3.34.83,3.34,2.75C183.24,28.14,182.83,30.27,179.32,30.27Z"/></g></g></svg>