<?xml version="1.0" encoding="UTF-8" standalone="no"?>
<svg width="453px" height="656px" viewBox="0 0 453 656" version="1.1" xmlns="http://www.w3.org/2000/svg" xmlns:xlink="http://www.w3.org/1999/xlink">
    <!-- Generator: Sketch 49.3 (51167) - http://www.bohemiancoding.com/sketch -->
    <title>Page 1 Copy</title>
    <desc>Created with Sketch.</desc>
    <defs>
        <polygon id="path-1" points="0.608808163 0.609647412 33.7751837 0.609647412 33.7751837 64.3849728 0.608808163 64.3849728"></polygon>
        <polygon id="path-3" points="0 0.0895904788 17.4966463 0.0895904788 17.4966463 6.46121378 0 6.46121378"></polygon>
    </defs>
    <g id="Dis" stroke="none" stroke-width="1" fill="none" fill-rule="evenodd">
        <g id="01desktop_01home" transform="translate(-174.000000, -5407.000000)">
            <g id="Page-1-Copy" transform="translate(174.000000, 5407.000000)">
                <path d="M160.999405,645.51146 C160.856328,652.080207 133.649823,656.735195 100.241882,655.90392 C66.8276292,655.071123 39.8581848,649.067216 40.0005611,642.490856 C40.1436388,635.918302 67.3487407,631.261792 100.765098,632.096873 C134.174441,632.926626 161.14599,638.933578 160.999405,645.51146" id="Fill-1" fill="#E2E1E8"></path>
                <path d="M321,46 L321.637,47 C321.538,46.7270531 321.485,46.4476651 321.401,46.1698873 C321.275,46.1095008 321.148,46.0523349 321,46" id="Fill-3" fill="#83512C"></path>
                <path d="M280.999452,632.762522 C281.161796,641.023084 245.250763,648.272194 200.79145,648.948728 C156.337036,649.62675 120.160094,643.501475 120.000548,635.242402 C119.838204,626.98705 155.749936,619.73794 200.204351,619.050986 C244.669962,618.374452 280.837807,624.509403 280.999452,632.762522" id="Fill-5" fill="#E2E1E8"></path>
                <path d="M396.120391,233.697676 C396.120391,233.697676 363.131034,172.972098 348.468466,157.791404 C343.57526,152.725335 323.108048,142.607207 316.944655,149.116321 C310.77842,155.624734 316.210816,191.045186 316.210816,191.045186 L379.992987,259 C379.992987,259 401.559891,237.835572 396.120391,233.697676" id="Fill-7" fill="#B9D159"></path>
                <path d="M384.999805,615.586257 C384.895847,624.674596 342.045402,631.561662 289.309057,630.963846 C236.563519,630.36255 193.894822,622.508817 194.000195,613.414215 C194.106274,604.32518 236.952477,597.434634 289.697308,598.036626 C342.432945,598.637226 385.105178,606.496527 384.999805,615.586257" id="Fill-9" fill="#E2E1E8"></path>
                <path d="M437.999765,628.290085 C437.90388,636.835132 407.598626,643.413569 370.325504,642.979716 C333.044626,642.541582 302.90294,635.262415 303.000235,626.710946 C303.096825,618.164472 333.399259,611.583181 370.679432,612.020601 C407.953259,612.458022 438.09706,619.742897 437.999765,628.290085" id="Fill-11" fill="#E2E1E8"></path>
                <path d="M375.205718,606.882858 C375.205718,606.882858 345.333825,594.08084 338.386856,590.832889 C331.44905,587.590499 320.747745,584.932768 316.319643,589.255491 C311.885198,593.576129 311,605.394445 311,605.394445 C311,605.394445 341.769777,617.74111 348.365767,618.872887 C354.962463,620.000494 376,613.255016 376,613.255016 L375.205718,606.882858 Z" id="Fill-13" fill="#D79500"></path>
                <path d="M210.450123,611.035 C210.450123,611.035 240.857837,595.875146 248.129491,592.001744 C255.397639,588.124783 266.35701,584.663415 270.334331,589.036381 C274.324274,593.407213 273.993298,606.014451 273.993298,606.014451 C273.993298,606.014451 241.890735,623.127018 231.079321,623.968876 C224.209467,624.506157 209,617.909347 209,617.909347 L210.450123,611.035 Z" id="Fill-15" fill="#D79500"></path>
                <path d="M278,302.402464 L314.092089,583 L340,579.385368 L332.885704,299 C315.935022,301.043883 294.9808,301.953375 278,302.402464" id="Fill-17" fill="#9CB4A6"></path>
                <path d="M309.324183,574.44422 C309.324183,574.44422 309.712984,582.445946 310.210911,589.318608 C310.702333,596.189855 343.676773,587.686165 343.676773,587.686165 L345,573.000544 C345,573.000544 305.019901,572.928431 309.324183,574.44422" id="Fill-19" fill="#C0D7DB"></path>
                <path d="M277.962849,305.001249 C264.443219,305.308741 251.061545,305.486466 237.596523,306.765097 C234.430015,307.062715 231.218959,307.334944 228,307.462595 L249.81348,582 L274.056268,578.083004 L289,313.632181 C283.633391,313.939673 283.325147,304.87783 277.962849,305.001249" id="Fill-21" fill="#9CB4A6"></path>
                <path d="M244.311487,573.690168 C244.311487,573.690168 244.251918,581.842634 244.354549,588.851599 C244.462205,595.866201 277.85622,588.969261 277.85622,588.969261 L280,574.119245 C280,574.119245 240.099287,571.917495 244.311487,573.690168" id="Fill-23" fill="#C0D7DB"></path>
                <path d="M212.040696,209.767706 C208.610939,177.852282 203.580297,161.87966 207.325671,160.48589 C207.325671,160.48589 228.677938,146.210927 259.594198,140.395148 C263.967957,139.572235 281.70238,137.119824 299.98468,138.328989 C314.374127,139.280416 329.464631,147.223416 338.506393,150.292835 C342.468354,151.639034 340.464219,170.389256 340.689354,201.568388 C341.064818,253.534792 340.844669,330.225531 339.332128,330.215591 C330.839668,330.160919 338.224261,330.309313 226.851917,334 C226.851917,334 217.433978,259.942727 212.040696,209.767706" id="Fill-25" fill="#B9D159"></path>
                <path d="M118.399762,245.019829 C118.399762,245.019829 198.195299,163.811247 204.983822,161.559136 C212.415013,159.09304 218.882901,153.885122 226.437735,159.535043 C233.993268,165.184964 229.885087,197.564842 229.885087,197.564842 L149.765422,264 C149.765422,264 113.841714,250.033406 118.399762,245.019829" id="Fill-27" fill="#B9D159"></path>
                <path d="M279.238385,144.987122 C284.961656,145.22889 295.485088,142.018471 299,139.389872 L298.40211,105.424708 L257.071008,105 L257,140.877068 C263.728748,143.992789 272.213532,144.690831 279.238385,144.987122" id="Fill-29" fill="#F1B886"></path>
                <path d="M336.989906,256.345531 L215.435264,258.662368 C215.930851,262.827235 216.427846,266.953731 216.917801,271 L336.955412,268.71037 C336.971603,264.665496 336.984978,260.531326 336.989906,256.345531 M336.987794,232.628117 L212.65322,234.99937 C213.124168,239.083311 213.60638,243.207714 214.092111,247.335606 L336.999761,244.991561 C337.001169,240.86925 336.996242,236.735777 336.987794,232.628117 M336.896279,209 L210,211.41939 C210.435046,215.407755 210.894731,219.53774 211.369199,223.757719 L336.954004,221.363444 C336.938517,217.160208 336.917398,213.026037 336.896279,209" id="Fill-31" fill="#DBE069"></path>
                <path d="M316.478836,93.393172 C314.709689,122.469869 292.044151,136.939178 266.892983,134.791219 C234.355659,132.009229 230.776042,104.658507 230.040648,75.5437689 C229.298951,46.4255079 238.606935,23.6517914 266.238832,24.0040313 C308.539385,24.5359135 319.706165,40.2930118 316.478836,93.393172" id="Fill-33" fill="#FBCA8F"></path>
                <path d="M243.783895,79.0182201 C246.905704,85.9829646 247.026749,91.3394366 242.220453,93.3483763 C237.419956,95.3580165 226.795511,92.6920386 223.672252,85.7279946 C220.555517,78.7618491 221.919632,71.4888991 226.731002,69.4743556 C231.536574,67.4675174 240.666434,72.0513742 243.783895,79.0182201" id="Fill-35" fill="#FBCA8F"></path>
                <path d="M308.084652,81.6621382 C308.981153,89.6510292 311.937081,94.6091137 317.869717,93.9397241 C323.803095,93.2747871 332.837117,85.3014806 331.937648,77.3118475 C331.035953,69.319246 325.50036,63.3852774 319.561787,64.0509564 C313.629151,64.7203461 307.184441,73.6687945 308.084652,81.6621382" id="Fill-37" fill="#FBCA8F"></path>
                <path d="M235.508546,111.221816 C241.052153,124.062095 248.852885,133.346506 257.833542,136.961037 C274.083015,143.501684 288.211859,141.595468 300.319282,134.847731 C327.564501,119.660198 322.655535,41.7901668 322.655535,41.7901668 L314.979339,43.2440366 C314.979339,43.2440366 316.656,94.3499994 309.532124,102.671054 C306.498936,106.21632 294.364073,99.1901067 278.24758,98.9250599 C259.195697,98.6119513 243.48588,107.032664 240.729204,103.194786 C237.421615,98.602763 232.525313,71.8478829 238.714818,42.3464116 C241.179503,30.5889374 227,41.8905312 227,41.8905312 C227,41.8905312 228.343862,94.6207005 235.508546,111.221816" id="Fill-39" fill="#B4844E"></path>
                <path d="M253.006643,78.8423578 C252.873182,82.1524814 254.766484,84.908926 257.257522,84.9978864 C259.730813,85.0848552 261.861221,82.4771204 261.992553,79.1676608 C262.134533,75.8482428 260.229162,73.0911343 257.751612,73.0021739 C255.264834,72.9138774 253.143654,75.5262593 253.006643,78.8423578" id="Fill-41" fill="#83512C"></path>
                <path d="M293.007242,78.8339741 C292.867384,82.1545006 294.770028,84.9074441 297.250565,84.9977263 C299.733232,85.0880085 301.856668,82.4784544 301.992977,79.1612471 C302.130706,75.8526697 300.225932,73.0944154 297.748235,73.0021417 C295.262728,72.9145148 293.141421,75.5267243 293.007242,78.8339741" id="Fill-43" fill="#83512C"></path>
                <path d="M277.846465,83.0598586 C277.312369,82.8914731 276.883284,83.0898256 276.527915,83.5107895 C281.679717,84.6573812 291.591092,90.1035134 289.778782,95.7451441 C288.685554,99.1463902 279.253335,96.972361 274,96.5271381 C274.144651,96.7740085 274.292779,96.9702206 274.458989,97.0586943 C276.518179,98.1788866 291.426969,101.093527 292.799067,96.4764798 C295.020295,89.0054396 278.098213,83.1354895 277.846465,83.0598586" id="Fill-45" fill="#D38353"></path>
                <path d="M265,61.8453806 C265,61.8453806 259.046631,60.5848922 254.342825,61.1422239 C250.97964,61.5390813 246,63.4574474 246,63.4574474 L248.02057,68 C248.02057,68 251.673546,67.6191234 255.323865,67.0338253 C258.956237,66.4558517 264.321381,67.7496336 264.321381,67.7496336 L265,61.8453806 Z" id="Fill-47" fill="#B4844E"></path>
                <path d="M289,62.2232153 C289,62.2232153 294.864771,60.7168837 299.579794,61.0473979 C302.946153,61.2834795 308,62.9498219 308,62.9498219 L306.195149,67.5101308 C306.195149,67.5101308 302.536381,67.2983131 298.874298,66.892384 C295.231443,66.4851433 289.94022,68 289.94022,68 L289,62.2232153 Z" id="Fill-49" fill="#B4844E"></path>
                <path d="M260.97811,10.6017108 L265.769506,7.16188561 C272.146709,1.87044123 293.490265,-3.50880755 301.153032,2.96834745 C299.330082,2.99082538 300.585137,4.09294621 298.75248,4.176536 C309.364972,6.66807367 326.774174,11.3996772 327.842011,34.8799787 C328.328778,45.5338134 327.715812,55.5582662 325.653639,65.70705 C323.219111,65.9395561 321.896103,66.9306921 319.954582,68.4936104 C318.442969,69.7102282 318.445049,72.8803183 317.884782,74 C318.432568,62.0923184 314.730504,45.9061041 306.283501,36.4274435 C302.340133,32.004209 291.730415,33.9000816 285.98906,32.6181374 C278.792951,31.0095607 272.068355,28.3789409 266.57385,23.5827133 C260.204275,18.025046 256.482795,15.082545 260.97811,10.6017108" id="Fill-51" fill="#B4844E"></path>
                <path d="M269.951159,6.53919196 C276.954027,8.98246992 286.06186,10.9164069 290,17.7206066 L287.824963,17.0511669 C295.129349,25.9267336 273.076049,49.8048345 267.393916,55.5003853 C260.903488,62.0063478 252.507691,65.2635795 244.441016,67.1493452 C244.261237,65.7318331 244.436061,64.1754742 244.771554,62.7005816 C245.107046,61.8625422 245.356188,61.0585061 245.43546,60.3734816 C245.184903,61.0981766 244.953455,61.8873363 244.771554,62.7005816 C243.855674,64.9660507 242.219973,67.5035461 240.92118,68.8197567 C237.892549,71.8906787 230.725474,81.4973161 229.99999,89 C220.460405,49.9103863 218.775867,27.30245 237.089208,11.0290428 C246.376112,2.77049416 265.133945,4.85886279 269.951159,6.53919196" id="Fill-53" fill="#B4844E"></path>
                <path d="M448.148538,317.070095 C445.928214,320.514456 435.042127,326.540146 432.09677,329 L387.459926,302.503774 C387.459926,302.503774 374.962656,293.424277 374.032692,286.260825 C373.148661,279.418009 390.30847,267.911145 411.562663,265 L440.091208,295.209667 C448.532254,307.09861 450.337062,313.425866 448.148538,317.070095" id="Fill-55" fill="#B9D159"></path>
                <path d="M399.243044,204.271884 C399.243044,204.271884 415.204941,199.275843 425.548133,219.866211 C448.00108,264.543397 424.284788,324.830473 417.536129,322.957399 C371.429705,310.161365 370.958951,286.128305 368.466845,283.687226 C365.971211,281.244733 373.093932,191.338623 399.243044,204.271884" id="Fill-57" fill="#D79500"></path>
                <path d="M413.218689,311.227486 C413.218689,311.227486 423.42505,308.950952 431.225328,318.801234 C439.842284,329.680577 431.009815,391 431.009815,391 L419.613172,389.546714 C419.613172,389.546714 407.246724,348.630697 405.743098,344.074127 C404.238764,339.511958 404.260032,308.957252 413.218689,311.227486" id="Fill-59" fill="#EC6E83"></path>
                <path d="M421.495298,409.731039 C428.036877,417.299622 431.322461,426.658077 438,434.36326 L422.405455,513.881616 L404.94692,612 L395,610.288989 L400.221429,511.931205 L405.571068,413.850139 C407.83519,408.629091 414.450033,408.298859 421.495298,409.731039" id="Fill-61" fill="#AB7766"></path>
                <path d="M392.551888,594 L391,618 L403.687135,613.317948 L407,595.444211 C402.445625,595.992752 396.484061,595.636468 392.551888,594" id="Fill-63" fill="#83512C"></path>
                <path d="M440.26773,616.624961 C440.26773,616.624961 435.022278,615.048537 402.333047,612.078061 C401.260019,612.708769 399.931507,613.105984 398.341912,613.155722 C397.562164,613.177828 396.86151,613.082496 396.199354,612.954697 C395.747884,612.893906 395.307614,612.8117 394.890441,612.69219 C394.232485,612.504981 393.615826,612.272869 393.040464,612 C392.363609,613.407867 390.936404,616.77832 391.002199,620.052751 L391.44737,625.095651 C391.44737,625.095651 411.78102,626.451708 425.790591,626.986393 C427.044208,627.022315 436.65387,627.177747 440.780096,624.303985 C441.485649,623.81213 440.26773,616.624961 440.26773,616.624961" id="Fill-65" fill="#83512C"></path>
                <path d="M380.496543,415.730351 C387.038613,423.300395 390.323384,432.659619 397,440.362038 L381.406671,519.881646 L363.948003,618 L354,616.283344 L359.223371,517.929108 L364.572131,419.852297 C366.838292,414.629805 373.455031,414.298866 380.496543,415.730351" id="Fill-67" fill="#AB7766"></path>
                <path d="M355.493463,601 L354,625 L368.406854,622.97162 L372,602.313582 C368.894267,602.636177 361.420859,603.086761 355.493463,601" id="Fill-69" fill="#83512C"></path>
                <path d="M401.963946,625.354042 C401.963946,625.354042 396.931541,623.1954 364.647036,616.250405 C363.489024,616.717479 362.107884,616.926102 360.510676,616.77196 C359.730431,616.696219 359.044097,616.521481 358.397306,616.308208 C357.955991,616.197917 357.523149,616.066365 357.123493,615.898272 C356.490824,615.635168 355.908288,615.337516 355.366706,615 C354.496785,616.264357 352.613605,619.297353 352.236545,622.424694 L352,627.288117 C352,627.288117 372.145158,631.140985 386.08154,633.414569 C387.333464,633.606581 396.918831,634.963955 401.435074,632.740201 C402.20614,632.363485 401.963946,625.354042 401.963946,625.354042" id="Fill-71" fill="#83512C"></path>
                <path d="M361.720296,203.9748 C361.720296,203.9748 342.334618,200.941655 334.965567,222.743489 C324.66369,253.220923 322.529765,318.558725 327.727553,322.027696 C341.730159,331.376779 418.398586,321.617259 420.877715,319.151814 C423.351913,316.682844 387.755732,190.735731 361.720296,203.9748" id="Fill-73" fill="#D79500"></path>
                <path d="M378.322623,302 L354.080983,317.512032 C352.847181,320.523242 366.091804,329.751784 367.915532,345.103047 C369.73856,360.452177 377.294805,401 377.294805,401 L410,400.840654 C410,400.840654 408.744479,369.215486 406.920051,354.630363 C405.101928,340.051642 408.951164,311.696621 408.951164,311.696621 L378.322623,302 Z" id="Fill-75" fill="#F2B470"></path>
                <polygon id="Fill-77" fill="#83512C" points="379.446592 408 410 406.372562 409.341376 390 376 391.89832"></polygon>
                <path d="M354,317.387704 L361.508704,311.353934 C361.508704,311.353934 371.111054,318.06541 385.595076,316.785455 C400.079798,315.504795 405.73845,305 405.73845,305 L418.668513,308.744661 L423,331.895266 L421.311644,379.068116 C421.175148,379.075874 421.039351,379.092799 420.906355,379.101967 L420.765658,400.104505 L376.377716,410 L354.097297,320.520243 L354.668483,320.059741 L354,317.387704 Z" id="Fill-79" fill="#D4DFDC"></path>
                <path d="M395.202074,432.372631 C395.326536,432.302537 400.219408,429.502277 401.926315,421.384645 C402.825866,417.147126 403.008279,411.749252 402.999718,407.553372 C402.991815,403.788462 402.812037,401.008328 402.812037,401 L401.123568,401.108263 C401.123568,401.124225 401.30203,403.850922 401.312566,407.563782 C401.321786,411.69512 401.126861,417.029148 400.274066,421.039731 C399.203956,426.071178 396.877373,428.803427 395.483925,430.049837 L392.684518,401.136717 L391,401.299111 L394.074673,433 L395.202074,432.372631 Z" id="Fill-81" fill="#83512C"></path>
                <path d="M410,403.274363 L410,403.283711 L410,403.274363 Z M378.648568,405 L378.623948,404.871933 L378,402.87053 C378.50366,402.654592 379.045306,402.613461 380.072322,402.491003 C386.956145,401.759991 409.947242,401.00187 409.956387,401 L410,403.274363 C409.980304,403.285581 402.482381,403.534237 394.778352,403.882917 C390.924227,404.054919 387.015234,404.254966 383.984832,404.462491 C382.475962,404.56158 381.173903,404.667212 380.220044,404.769105 C379.7403,404.815845 379.346376,404.868194 379.063595,404.914933 C378.922908,404.937369 378.805434,404.967282 378.730166,404.97663 C378.690071,404.988782 378.661933,404.996261 378.648568,405 Z" id="Fill-83" fill="#83512C"></path>
                <path d="M422.017613,403 L422.017613,403.002732 L422.017613,403 Z M432,419.338241 L431.818688,421 C431.755484,420.970631 425.867306,420.407149 422.306819,417.168324 C420.332176,415.256583 420.045524,411.716552 420.000196,408.604083 C419.989343,405.484101 420.433047,403.532063 420.435601,403.506109 L421.870138,403.500645 L422.05528,403.750626 C422.047619,403.825074 421.631367,405.656902 421.63839,408.592472 C421.613492,411.563558 422.147213,414.860439 423.405546,415.932762 C424.864981,417.280337 427.026044,418.166199 428.81746,418.673674 C430.613345,419.183881 431.997446,419.334143 432,419.338241 Z" id="Fill-85" fill="#83512C"></path>
                <path d="M375.761872,342.523988 C372.037175,333.907467 365.794644,309.350135 363.235022,308.182912 C359.69093,306.566919 340.363446,316.109072 337.283259,319.095955 C335.539543,320.781475 342.234647,345.425893 346.747628,354.520681 C348.046562,357.14026 357.89622,379.581562 359.303516,396.99931 C366.944137,397.05128 375.154192,394.151482 375.638636,394.119176 C376.871702,378.204351 377.900792,357.702803 375.761872,342.523988" id="Fill-87" fill="#EC6E83"></path>
                <path d="M398,340.153017 C400.373394,356.285615 406.681013,367.279921 408.594425,384.76125 C415.342948,385.340788 422.023639,384.799322 428.666882,383.84541 C428.725528,383.761511 428.767216,383.684663 428.771455,383.63249 C429.988182,366.737045 426.070916,313.982139 423.530062,311.334029 L399.015352,305 C399.015352,305 399.737474,328.529819 398,340.153017" id="Fill-89" fill="#EC6E83"></path>
                <path d="M437.746676,416.58543 C435.885934,412.049324 427.778167,400.191906 421.561931,392 C408.592722,395.446996 388.475857,397.384501 373.225332,396.231571 C368.240728,404.662804 363.062981,416.232336 363.062981,416.232336 C361.468859,421.555792 361,440.267662 361,440.267662 C361,440.267662 369.744577,447.800553 398.243527,446.929959 C399.603919,446.889031 399.470959,437.225787 400.322603,437.200813 C400.373688,438.76927 402.960112,445.537009 402.969909,445.851255 C423.925122,442.089319 441,434.079856 441,434.079856 C441,434.079856 440.605318,423.530063 437.746676,416.58543" id="Fill-91" fill="#9CB4A6"></path>
                <path d="M340.66833,317.785205 C340.66833,317.785205 329.76264,323.247629 331.11635,336.053415 C336.591998,387.874069 350.215967,401 350.215967,401 L356,392.937203 C356,392.937203 355.660487,350.564739 355.103801,345.521569 C354.550734,340.482677 348.175991,311.939892 340.66833,317.785205" id="Fill-93" fill="#EC6E83"></path>
                <path d="M366.373741,307.3245 C366.793113,308.91639 367.24967,309.732172 367.24967,309.732172 C367.24967,309.732172 372.950089,333.719098 374.37967,339.14071 C375.807186,344.56441 376,359 376,359 C376,359 357.753561,337.290582 352.520027,332.426515 C347.285117,327.561055 349.272482,313.430339 349.866075,311.937987 C350.460357,310.444938 365.951616,305.731219 366.373741,307.3245" id="Fill-95" fill="#F3A2A5"></path>
                <path d="M398.012797,305.514093 C398.746694,307.344525 398.096015,306.869488 398.096015,306.869488 C398.096015,306.869488 398.733781,333.293868 398.912413,338.783113 C399.167088,346.681036 401.195885,350.496372 402.633548,355 C402.633548,355 417.67735,329.355501 421.483138,323.425394 C425.287491,317.501439 420.86259,308.747081 419.824518,307.485327 C418.782858,306.218789 397.403011,303.989873 398.012797,305.514093" id="Fill-97" fill="#F3A2A5"></path>
                <path d="M358.421645,442.539276 C358.421645,442.539276 357.054026,436.204399 359.244899,435.047452 C360.231252,434.529593 378.829319,438.400358 386.429949,439.361625 C394.032697,440.33014 401,440.597635 401,440.597635 L399.726992,446.748033 C399.726992,446.748033 365.826699,448.545386 358.421645,442.539276" id="Fill-99" fill="#D4DFDC"></path>
                <path d="M442.853337,436.774868 C442.853337,436.774868 443.7398,427.687229 441.153989,427.010113 C440.087122,426.732607 431.39795,432.227927 421.615027,435.876441 C414.120069,438.670237 401,442.667022 401,442.667022 L402.201995,448 C402.201995,448 436.254746,444.506195 442.853337,436.774868" id="Fill-101" fill="#D4DFDC"></path>
                <path d="M397.533809,404.113015 C398.098446,404.040846 399.291852,403.970151 399.857883,403.886936 C401.653569,403.661594 402.807939,403.417104 404.577136,403.157887 C404.681698,404.059993 404.80787,405.271393 404.912433,406.658059 C405.178718,409.990328 405.11389,413.661348 404.634994,416.950906 C404.027137,421.075556 402.200082,423.43576 401.088932,424.524915 L397.533809,404.113015 Z M406.060528,417.127645 C406.573582,413.652511 406.616801,409.932888 406.354697,406.542442 C406.244558,405.110118 406.114204,403.873681 406.006853,402.946536 C411.576547,402.10187 416.647826,400.522264 421.114037,399.682017 C421.207446,400.387501 421.337103,401.198292 421.554593,402.1328 C422.289319,405.08729 423.397681,408.390103 426.133732,409.701654 C428.270291,410.640581 430.806977,410.974176 433,411.064019 C432.671674,410.500663 432.324527,409.922578 431.970408,409.334184 C430.292529,409.190584 428.555398,408.868771 427.158444,408.231037 C425.44362,407.53439 424.097552,404.53498 423.482725,401.696843 C423.267326,400.786637 423.146731,399.992047 423.060293,399.308655 C423.799898,399.164318 424.500466,398.957386 425.170363,398.732044 C424.7793,398.148805 424.388236,397.573666 424.001355,397 C423.64654,397.104571 423.291724,397.201777 422.9153,397.272473 C422.911814,397.25038 422.803069,397.534636 422.800281,397.507389 L422.723602,397.229761 C422.119231,397.371889 421.544137,397.511807 420.959982,397.624478 C420.958587,397.631843 420.95789,397.635525 420.95789,397.650989 C414.765004,398.82115 407.84297,400.805783 399.924803,401.834553 C399.217961,401.919976 397.871894,402.000982 397.167143,402.08346 L397.152504,402.012764 L395.733243,402.254308 C387.974012,403.088664 379.418014,402.611468 373.662199,402.31764 C372.598451,402.262409 371.165945,402.049585 369.803845,401.85149 C369.437876,402.579066 369.079575,403.30296 368.726851,404.023172 C371.899276,404.462075 376.39825,405.102754 379.758191,405.322205 C379.820231,406.27807 379.884363,408.092592 379.621562,410.049978 C379.265353,412.928617 378.112378,415.877215 375.854526,416.729982 C373.240464,417.78968 369.532679,418.244047 366.510127,418.382493 C366.017987,418.406058 364.013176,418.135795 362.398034,417.928126 L362.395246,417.933281 C362.254435,418.431833 362.120595,419.047474 362,419.752222 C366.794537,420.504836 373.291351,419.599048 376.707058,418.235947 C380.076758,416.82277 381.112623,413.309343 381.538541,410.287839 C381.823648,408.119839 381.746272,406.152879 381.673078,405.163876 C386.119771,404.775787 391.119947,404.907605 396.093635,404.29049 L400.060038,427 L400.981581,426.425598 C401.092418,426.362266 405.098554,423.787029 406.060528,417.127645 Z" id="Fill-103" fill="#E1EEED"></path>
                <path d="M376.969271,312.961192 C375.251275,311.414065 373.780645,309.688668 372.403019,307.888284 L372,269 L388.22731,269.527735 L391,310.284315 C387.061527,314.216155 381.597525,317.139214 376.969271,312.961192" id="Fill-105" fill="#F2B470"></path>
                <path d="M395.605962,204 C395.444444,203.840355 395.244444,203.509701 395,203.082594 C395.486721,203.031874 395.839024,203 396,203 L395.605962,204 Z" id="Fill-107" fill="#BF5B36"></path>
                <path d="M361.254206,280.585578 C353.907988,275.579064 358.247657,281.010659 351.789482,275.074801 C341.253902,264.528338 328.547082,244.059837 332.865657,228.736071 C339.57344,204.939155 362.159827,200.013213 370.574791,200.000016 C386.759956,199.968065 388.617604,248.792687 374.474306,287 C366.715355,283.473631 368.33816,285.412196 361.254206,280.585578" id="Fill-109" fill="#D79500"></path>
                <path d="M421.837992,249.827277 C423.66034,272.759374 409.967726,296.739795 387.877661,298.856986 C363.486944,301.193757 343.936332,274.445193 342.123142,251.51168 C340.302203,228.577458 358.908886,210.916733 382.519804,209.115457 C406.134245,207.312056 420.017758,226.892348 421.837992,249.827277" id="Fill-111" fill="#FBCA8F"></path>
                <path d="M351.96907,263.051088 C352.223724,268.30029 350.928248,271.807861 347.25276,271.994248 C343.587681,272.177257 337.285853,267.970062 337.032587,262.717484 C336.774463,257.463555 338.024143,253.187479 341.700324,253.005144 C345.375118,252.817408 351.715109,257.797835 351.96907,263.051088" id="Fill-113" fill="#FBCA8F"></path>
                <path d="M346.861379,258.927626 C348.193134,260.866289 340.81305,223.307196 382.087752,212.278374 C388.779786,210.487467 387.044763,199.639235 385.967303,198.40009 C384.894,197.159517 360.785216,198.326569 349.54914,208.818618 C341.544753,216.287038 327.291094,230.333778 346.861379,258.927626" id="Fill-115" fill="#D79500"></path>
                <path d="M376,246.200076 C376,246.200076 370.971449,245.645943 367.007149,246.38207 C364.182408,246.914472 360,248.719023 360,248.719023 L361.182186,250.987163 C361.182186,250.987163 363.580658,251.132034 366.649794,250.448423 C369.703299,249.758474 375.49274,250.7273 375.49274,250.7273 L376,246.200076 Z" id="Fill-117" fill="#D38048"></path>
                <path d="M398,244.937057 C398,244.937057 402.917269,243.829584 406.889751,244.022584 C409.724819,244.168369 414,245.305662 414,245.305662 L413.01076,247.517295 C413.01076,247.517295 410.6562,247.934772 407.565708,247.676334 C404.502734,247.415411 398.867172,249 398.867172,249 L398,244.937057 Z" id="Fill-119" fill="#D38048"></path>
                <path d="M387.997194,262.093062 C388.44217,262.255785 387.138287,261.826586 386.809902,262.084851 C390.290373,264.608541 393.585264,266.800814 392.858815,268.282483 C391.754999,270.539696 388.415955,271.616052 384,270.913659 C384.104863,271.096535 384.224213,271.239103 384.35805,271.318225 C386.04068,272.237831 393.396925,272.681212 394.795323,269.611134 C396.417933,266.055128 387.855768,262.044544 387.997194,262.093062" id="Fill-121" fill="#E09769"></path>
                <path d="M409.991244,258.330211 C410.144781,261.363007 408.26081,263.903717 405.784621,263.997151 C403.291982,264.094045 401.162037,261.707674 401.008499,258.674186 C400.857311,255.635162 402.741283,253.095836 405.221388,253.003094 C407.704627,252.902047 409.836139,255.288418 409.991244,258.330211" id="Fill-123" fill="#83512C"></path>
                <path d="M371.991526,259.325253 C372.14262,262.36134 370.255115,264.90537 367.775758,264.997415 C365.295618,265.089459 363.164639,262.712217 363.008847,259.678206 C362.854621,256.638657 364.735081,254.098088 367.216004,254.002583 C369.69771,253.910538 371.832603,256.289857 371.991526,259.325253" id="Fill-125" fill="#83512C"></path>
                <path d="M423.142095,270.623858 C423.083853,274.105552 418.861981,252.716107 396.571824,235.413078 C390.558308,230.737999 359.196222,217.360779 360.015774,211.412012 C362.001559,197.06975 383.186498,196.151494 384.714665,196.06281 C394.93272,195.470657 412.435221,198.83015 423.065132,216.260966 C436.299306,237.966041 423.289088,262.378402 423.142095,270.623858" id="Fill-127" fill="#D79500"></path>
                <path d="M395.379381,279.361773 C395.251847,278.969705 395.127723,278.585129 394.996097,278.199304 C393.209942,278.819246 391.664532,279.143264 389.898155,279.231292 C386.244686,279.414216 382.28159,278.588875 379.810025,277 L378,280.207092 C381.061494,282.181168 385.767969,283.183813 390.016823,282.972171 C390.026371,282.969674 390.036601,282.966553 390.043421,282.966553 C392.126246,282.865414 393.953321,282.477092 396,281.769122 C395.830182,280.961886 395.631039,280.158396 395.379381,279.361773" id="Fill-129" fill="#DE7563"></path>
                <path d="M432.569626,386.042492 C433.797389,385.988158 432.196113,402.775443 430.308668,409.296982 L409.199525,454.283202 L401,455 L413.35716,403.291622 L422.699946,386 C422.699946,386 427.218312,386.270976 432.569626,386.042492" id="Fill-131" fill="#FBCA8F"></path>
                <path d="M403.233623,450 C403.168377,450.79965 394.894927,459.473318 394.894927,459.473318 L392,468.484866 L392.628345,476.783346 L394.514091,477.521755 L395.649509,470.193977 L397.357247,465.242623 L397.120376,474.583604 L396.133888,486.671975 L398.675637,486.992961 L401.762047,473.030763 L401.730842,487 L402.99037,486.819797 L405.595237,473.823374 L407.231346,483.895725 L408.979508,483.116489 L409.264604,473.569964 L409.783024,479.030953 L411,478.226376 L410.473779,465.770561 L408.52066,450.168236 L403.233623,450 Z" id="Fill-133" fill="#FBCA8F"></path>
                <path d="M414.168752,443 C414.168752,443 411.426978,438.790205 409.747371,437.458771 C407.800784,435.923738 405,434.686757 405,434.686757 L408.008036,422 L423,424.413793 C423,424.413793 414.201855,442.145027 414.168752,443" id="Fill-135" fill="#EB9F7E"></path>
                <path d="M350.431362,402.839204 L398.792359,427 L404,422.263921 L354.839152,390 C354.839152,390 343.046694,395.724472 350.431362,402.839204" id="Fill-137" fill="#FBCA8F"></path>
                <path d="M409.414691,422.062858 C409.774412,422.179378 415.842706,424.06087 418.993971,423.597779 C422.149098,423.135436 426.56679,422.790359 426.56679,422.790359 C426.56679,422.790359 428.67557,423.396111 427.777231,424.264032 C426.875031,425.143157 422.25592,425.896052 421.312536,426.154486 C420.368507,426.409186 414.973968,427 414.973968,427 C414.973968,427 407.138598,421.345815 409.414691,422.062858" id="Fill-139" fill="#FBCA8F"></path>
                <path d="M424.984593,429.99699 C424.864064,429.156092 403.937081,421 403.937081,421 L398,424.748349 L417.977991,442 C417.977991,442 425.381506,432.662437 424.984593,429.99699" id="Fill-141" fill="#FBCA8F"></path>
                <path d="M434.935662,237.272678 C435.14596,237.377587 434.773513,236.622806 434.772097,235.946882 C434.739525,230.44233 434.580917,209.784417 421.664224,198.982314 C407.161444,186.850895 371.57929,188.896268 353.259989,194.124114 C334.937856,199.345623 331.525645,213.216841 331.073894,223.623952 C330.675956,232.829185 332.014925,238 332.014925,238 C332.014925,238 405.289295,222.094675 434.935662,237.272678" id="Fill-143" fill="#E8F3E9"></path>
                <path d="M432.1126,237.544621 C432.278869,237.617425 431.991933,237.141347 431.989828,236.718088 C432.007367,233.282763 448.169788,217.312392 437.159586,211.805023 C423.027465,204.730951 381.283547,205.617441 370.302108,206.81727 C355.367408,208.449639 346.36225,216.471583 343.64162,222.999628 C341.105499,229.078719 337,238 337,238 C337,238 402.232677,224.422865 432.1126,237.544621" id="Fill-145" fill="#E20714"></path>
                <g id="Group-149" transform="translate(419.000000, 309.000000)">
                    <mask id="mask-2" fill="white">
                        <use xlink:href="#path-1"></use>
                    </mask>
                    <g id="Clip-148"></g>
                    <path d="M14.6334612,6.45442935 C16.6977469,4.03388587 26.8790122,-2.17785326 29.1396653,2.04220109 L33.7754612,38.9141576 L27.2731347,57.0689402 L24.5045633,58.279212 L28.7823184,41.3092663 L22.063502,60.3577989 L19.4267673,61.2840489 L24.1159918,40.6458424 L18.5767673,63.3025815 L16.7386857,63.2849185 L18.6690531,38.1744293 L13.9000327,64.3849728 L10.265502,63.1181793 L11.7469306,39.7195924 L13.5517061,23.7522011 L2.35668571,39.5401359 L0.608808163,36.034375 L10.565951,11.9476359 C10.565951,11.9476359 12.0106041,9.20138587 14.6334612,6.45442935" id="Fill-147" fill="#FCD9AC" mask="url(#mask-2)"></path>
                </g>
                <path d="M180.088609,449.295833 C179.552067,448.886231 179.130931,448.607546 176.432021,447.199214 C171.388521,444.562077 169.407026,446.853127 171.824504,448.550513 C174.237258,450.239473 175.279973,450.342522 174.402608,451.292643 C173.518494,452.242765 169.514334,452.615425 166.687194,453.275844 C163.467938,454.025052 163.024532,457.266872 165.99205,456.765239 C168.945397,456.267495 172.833474,455.625871 172.914462,455.797619 C173.371366,456.730889 167.118452,459.178781 166.493498,460.329814 C165.873944,461.46983 166.056166,462.682434 167.766353,462.274128 C170.184506,461.693427 173.798576,459.703745 175.279973,459.241647 C175.599199,459.138598 174.638147,461.031064 173.459103,462.569016 C172.041146,464.414818 173.18847,466.116093 175.699759,464.066138 C178.212397,462.019423 180.507045,459.670692 182.187537,456.493683 C183.392901,454.218836 183.666909,451.987412 180.088609,449.295833" id="Fill-150" fill="#C76F4A"></path>
                <path d="M318.169772,416.220535 C318.105164,416.154955 318.049988,416.08241 318,416 C319.170014,417.153745 319.421842,417.414905 318.169772,416.220535" id="Fill-152" fill="#D59F38"></path>
                <path d="M304,398 C303.818692,397.880325 303.629907,397.758621 303.443614,397.637931 C303.294704,397.422245 303.143925,397.207573 303,397 L304,398 Z" id="Fill-154" fill="#D59F38"></path>
                <path d="M293,379.551 L294,379.22 C293.978476,379.146 293.95986,379.058 293.937755,379 C293.600931,379.088 293.289703,379.274 293,379.551" id="Fill-156" fill="#E08A3C"></path>
                <path d="M330,396.58 C330.359632,396.496 330.68902,396.279 331,396 C330.663379,396.131 330.327416,396.296 330,396.58" id="Fill-158" fill="#E08A3C"></path>
                <path d="M246,403.603 L246.838,403 C246.491,403.184 246.221,403.386 246,403.603" id="Fill-160" fill="#E08A3C"></path>
                <path d="M246,404.048 C246.07,404.034 246.098,404.024 246.123,404.015 C246.127,404.013 246.129,404.006 246.131,404 C246.104,404.006 246.067,404.032 246,404.048" id="Fill-162" fill="#E08A3C"></path>
                <path d="M238.700943,376.005233 C237.155243,376.056003 236.513645,379.222626 237.407274,382.72941 C238.898518,388.57526 244.664522,396.415661 245.995192,398.038864 C248.200641,400.736223 258.637953,408.388774 258.637953,408.388774 L261.912267,406.809089 L250.999516,394.149851 L260.430099,398.297067 L272.163871,412 L274,410.228113 C274,410.228113 267.922622,393.659554 263.157763,387.740449 C259.258606,382.896227 245.563039,375.779667 238.700943,376.005233" id="Fill-164" fill="#F8B973"></path>
                <path d="M195.467821,223.010385 C195.467821,223.010385 218.700505,227.67137 225.174461,236.314482 C234.214512,248.385059 241,325.9536 241,325.9536 L220.208235,329 C220.208235,329 209.152017,269.768434 206.170313,264.631823 C203.188608,259.500857 184.372222,222.287773 195.467821,223.010385" id="Fill-166" fill="#E44D6B"></path>
                <path d="M219,328.637063 L234.923295,384 L245,380.145272 L239.891018,321.812311 C239.891018,321.812311 219.180227,317.528191 219,328.637063" id="Fill-168" fill="#F8B973"></path>
                <path d="M190.789329,226.195861 C186.730389,224.366298 183.499343,222.321286 169.326961,239.18667 L136,301.565855 L144.196996,311 L200,241.114484 C200,241.114484 197.553051,229.245133 190.789329,226.195861" id="Fill-170" fill="#FBCA8F"></path>
                <path d="M183.097166,211.931582 C185.444978,211.496717 224.555371,207.481727 231.048791,189.430325 C237.543624,171.382414 236.418145,101.362994 195.002358,99.5209287 C153.585864,97.6781655 130.608985,99.06303 122.284541,132.086185 C113.959391,165.105152 116.318513,190.256777 116.281044,195.76273 C116.244283,201.267985 154.379072,217.249768 183.097166,211.931582" id="Fill-172" fill="#9D6135"></path>
                <path d="M217.69408,260.705484 C217.237906,246.979546 217.988794,229.829022 217.807594,230.713471 L212.492152,228.467679 C212.546442,228.33112 212.583105,228.237722 212.583105,228.237722 L173.036332,215 L146.429511,223.015229 C145.572159,223.146127 144.367918,223.618069 143.004333,224.307232 L139.352126,225.686972 C139.232266,225.908438 139.187848,226.186508 139.204769,226.509155 C136.881599,228.002812 134.617654,229.698124 133.196254,231.059468 C131.203757,232.973415 123.589117,266.106989 126.764704,278.22323 C127.677755,281.707251 149.353392,346.497017 153.147316,360.958816 C160.778172,362.026523 177.356935,365.557243 185.063233,365.964089 C190.814401,366.271877 191.203594,364.495904 196.965338,364.640246 C201.171721,364.190238 201.899342,360.733105 205.787744,359.836628 C207.434057,350.641898 208.030537,309.907017 210.347362,296.34594 C214.223073,293.35438 221.354042,286.534219 221.944177,279.952505 C222.323499,275.732623 220.754742,265.654859 217.69408,260.705484" id="Fill-174" fill="#EC6E83"></path>
                <path d="M176.984108,614 L178,627.462741 C178,627.462741 159.104548,631.637979 144.591308,634.933001 C143.296516,635.21986 129.976966,634.484828 128.502284,634.612476 C127.568667,634.690328 128.222687,631.999884 128.222687,631.999884 C128.222687,631.999884 165.163643,615.709933 163.694539,615.774459 C162.224738,615.853713 176.984108,614 176.984108,614" id="Fill-176" fill="#BF7431"></path>
                <path d="M138.020825,627.652457 C137.64913,627.803086 142.285417,629.639626 149.344783,628.764847 C161.02277,627.325034 177.770923,622.643521 177.956064,621.403839 C178.256387,619.4294 176.918711,608 176.918711,608 C176.918711,608 145.415847,624.50764 138.020825,627.652457" id="Fill-178" fill="#F8B973"></path>
                <path d="M189.218596,615 L188,628.12823 C188,628.12823 206.885785,632.48514 221.382389,635.907009 C222.674394,636.202718 236.045387,635.685912 237.517769,635.827606 C238.45671,635.921384 237.735201,632.958137 237.735201,632.958137 C237.735201,632.958137 201.047992,616.84681 202.516879,616.937165 C203.992757,617.03505 189.218596,615 189.218596,615" id="Fill-180" fill="#BF7431"></path>
                <path d="M227.977062,626.487855 C228.384141,626.652334 223.342186,627.529775 215.304329,626.526517 C203.91251,625.104526 188.18917,621.483362 188.032164,620.401469 C187.762199,618.570573 189.280398,608 189.280398,608 C189.280398,608 220.58499,623.469563 227.977062,626.487855" id="Fill-182" fill="#F8B973"></path>
                <path d="M147.029008,341 C137.740549,350.012329 129.037633,370.743582 125.345615,381.169276 C118.66606,400.015099 124.052071,422.580194 124.052071,422.580194 C124.999356,425.154641 125.120406,425.737654 125.845297,428.546012 L146.938925,500.785977 L164.22793,616.70814 L177.978341,617 L178.473097,499.376852 L175.723437,414.969218 C178.135283,406.481955 186,405.207099 186,405.207099 L180.892685,341.497505 C169.578049,341.618348 158.314085,341.982289 147.029008,341" id="Fill-184" fill="#F8B973"></path>
                <path d="M208.301997,336 C201.673201,336.930034 195.019296,337.608403 188.342374,337.620354 C183.835295,337.623166 179.364484,337.292768 174.914598,336.767647 L165,402.937134 C165,402.937134 170.408216,406.618607 172.4839,415.147081 L180.95891,503.134053 L189.681524,614 L202.906335,614 L212.133921,505.709748 L223.678516,438.606712 C225.06928,433.929829 227.534852,419.887231 227.754556,416.015956 C227.754556,416.015956 231.627631,397.337951 225.713746,378.356261 C222.296122,367.383548 216.116499,351.488615 208.301997,336" id="Fill-186" fill="#F8B973"></path>
                <path d="M188,344 L188,344.006 L188,344 Z" id="Fill-188" fill="#83512C"></path>
                <path d="M149,222.660147 C149,222.660147 151.302252,235.846532 155.12193,244.935139 C159.192449,254.615367 174.008646,258.222704 182.003991,256.641771 C195.30345,254.014612 202.861711,234.884622 196.980315,222.645391 C196.55835,221.766393 175.359759,215 175.359759,215 C175.359759,215 155.43806,220.079362 149,222.660147" id="Fill-190" fill="#F8B772"></path>
                <path d="M142.358089,260.633574 C150.491147,247.829079 147.990128,228.519116 148.987864,223.686482 C149.518724,221.118347 132.503076,225.955238 123.726659,234.862835 C115.320789,243.387341 59.9918103,312.58652 58.0392297,320.864853 C56.8579781,325.878392 82.745668,327 82.745668,327 C90.3267716,319.449541 129.312291,281.172978 142.358089,260.633574" id="Fill-192" fill="#EC6E83"></path>
                <path d="M157,140 C157.132815,139.740681 157.334953,139.523501 157.606738,139.34873 L158,139.336305 C157.897959,139.218801 157.78458,139.10778 157.667638,139 C157.350826,139.266613 157.111111,139.58725 157,140" id="Fill-194" fill="#CE1F33"></path>
                <path d="M187,223.580447 L184.411285,172 L166.844167,173.33191 L161,224.93377 C167.520598,228.45555 180.829734,227.12364 187,223.580447" id="Fill-196" fill="#F8B772"></path>
                <path d="M124.03397,151.430086 C124.961318,176.890848 135.798816,208.797445 159.254775,211.681517 C190.287624,215.506432 209.396814,184.134631 212.651042,157.57386 C215.908814,131.006723 195.955935,109.583803 169.541394,106.326223 C143.121891,103.065814 123.060538,124.686099 124.03397,151.430086" id="Fill-198" fill="#FBCA8F"></path>
                <path d="M189.979656,166.219712 C189.751373,169.533295 187.562172,172.114337 185.08278,171.996094 C182.604935,171.871555 180.787178,169.091111 181.020105,165.783824 C181.244519,162.471639 183.443007,159.885001 185.913113,160.003943 C188.394826,160.131981 190.214131,162.910326 189.979656,166.219712" id="Fill-200" fill="#83512C"></path>
                <path d="M150.980793,166.221666 C150.754988,169.533062 148.55648,172.11637 146.080355,171.995956 C143.604231,171.869241 141.789282,169.096209 142.019727,165.777813 C142.250946,162.469218 144.443267,159.881008 146.920939,160.004223 C149.390877,160.119037 151.208145,162.90747 150.980793,166.221666" id="Fill-202" fill="#83512C"></path>
                <path d="M203.070426,165.529659 C201.327558,170.845938 201.549483,174.741266 204.956424,175.783619 C208.362643,176.832894 215.494594,174.002067 217.239631,168.681636 C218.981776,163.365357 217.628541,158.215191 214.219431,157.165224 C210.808875,156.113873 204.807511,160.218918 203.070426,165.529659" id="Fill-204" fill="#FBCA8F"></path>
                <path d="M171.918417,93 L164.430108,93.2910182 C153.185398,94.9149976 141.995971,102.254658 134.582538,111.007537 C131.396456,114.769837 125.717069,126.317747 126.010975,133.856305 C126.110344,136.344965 144.583045,115.972294 150.750876,114.092191 C161.753462,110.727685 178.120536,110.630679 186.734786,117.77214 C195.752806,125.251378 209.998158,152.19464 207.746277,163 C213.359884,156.496406 218.116965,155.368623 220.665551,145.961128 C224.305089,132.521251 219.833517,120.606253 215.236685,113.758601 C204.202608,97.3066508 188.835515,96.5459558 171.918417,93" id="Fill-206" fill="#9D6135"></path>
                <path d="M161.529821,167.000204 C161.030505,167.15579 162.428996,166.99048 162.750372,167.303595 C158.709836,169.887606 154.735605,173.878365 155.385122,175.576189 C156.378341,178.162792 160.094118,177.764105 165,177.265584 C164.865361,177.463307 164.720572,177.624078 164.575108,177.691499 C162.643472,178.612693 154.381754,180.448598 153.141583,176.936911 C151.70385,172.857986 161.693554,166.960012 161.529821,167.000204" id="Fill-208" fill="#D38353"></path>
                <path d="M121.420656,157 C121.420656,157 194.084023,112.007524 193.999927,101.906089 C193.915131,91.8025302 151.292057,87.4529178 136.07709,104.420299 C117.979751,124.592733 118.776555,142.805187 121.420656,157" id="Fill-210" fill="#9D6135"></path>
                <path d="M179,149.48026 C179,149.48026 184.584872,148.649823 189.0536,149.172945 C192.238933,149.538215 197,151.104529 197,151.104529 L195.799539,153.452476 C195.799539,153.452476 193.127011,153.730814 189.662469,153.213792 C186.213822,152.697534 179.801689,154 179.801689,154 L179,149.48026 Z" id="Fill-212" fill="#C37D44"></path>
                <path d="M151,149 C151,149 144.921813,149.068943 140.221556,150.183848 C136.868073,150.972423 132,153.072226 132,153.072226 L133.610181,155 C133.610181,155 136.501994,154.860144 140.128797,153.895601 C143.738605,152.93434 150.768457,153.16612 150.768457,153.16612 L151,149 Z" id="Fill-214" fill="#C37D44"></path>
                <path d="M191.185057,108.262859 C165.956262,112.606731 111.32722,156.881517 132.95945,190 C127.18381,172.94379 139.438903,159.461222 152.622552,153.550696 C162.280791,149.220275 171.743174,146.910293 179.107503,138.137597 C183.705893,132.648999 195.184607,111.501649 191.158286,105 L191.185057,108.262859 Z" id="Fill-216" fill="#9D6135"></path>
                <path d="M149.651689,340.084604 C149.651689,340.084604 156.588576,345.029586 161.550022,348.359312 C165.43541,350.965969 161.052735,350.605938 153.859209,350.948681 C146.661875,351.294432 139.883389,349.779895 139.883389,349.779895 L139,339 L149.651689,340.084604 Z" id="Fill-218" fill="#B96C29"></path>
                <path d="M208.231382,321 C186.865132,324.813792 165.187972,324.784239 144.226186,324.64562 C143.832273,324.642805 143.453132,324.612548 143.085246,324.561885 C131.27349,342.027929 124.052225,375.389466 121.433409,395.886841 C118.187849,421.300632 121.46858,507.281247 121.46858,507.281247 C145.244028,520.597152 240.011701,507.189068 240.816409,501.934197 C241.619709,496.673697 239.739479,431.755489 236.104931,399.277036 C232.803801,369.766585 214.981359,331.279648 208.231382,321" id="Fill-220" fill="#E20714"></path>
                <path d="M164.083153,187.61443 C168.821,187.602273 173.500013,186.978889 178.011314,185.406584 C178.344032,185.290417 178.634146,185.151287 178.922231,185.011482 C178.946576,185.006078 178.975655,185.005403 179,185 C178.73085,186.568253 177.009103,197.764172 166.961297,197.995155 C159.878872,198.155897 157.165735,194.314962 153,186.774246 C156.603766,187.351028 160.39215,187.736675 164.083153,187.61443" id="Fill-222" fill="#DA5755"></path>
                <path d="M164.005792,187.165086 C168.564566,187.174963 174.724702,186.20015 178.069165,185.363626 C178.411925,185.27843 178.696763,185.130263 178.987734,185.002469 C178.992504,185.002469 178.995911,185 179,185 C178.957751,185.157427 178.87598,185.421658 178.742419,185.783431 C176.56661,187.928144 171.958092,190.785292 166.448722,190.980995 C160.272232,191.208184 154.882794,189.377091 153,186.63539 C156.59523,187.152738 160.330835,187.278063 164.005792,187.165086" id="Fill-224" fill="#FEFEFE"></path>
                <path d="M68.2890363,308 L135,325.498204 L131.338624,335.539559 L63.791137,336 C63.791137,336 43.5657547,322.261467 68.2890363,308" id="Fill-226" fill="#FBCA8F"></path>
                <path d="M134.615982,483 C134.470901,483.647281 126.823488,493.994107 126.823488,493.994107 L124.713545,498.648037 L124,506.065864 L125.814203,506.806403 L127.295697,501.735229 L128.817647,499.304298 L128.173852,504.302938 L125.994856,514.043931 L128.019704,514.64631 L132.111252,503.648749 L129.927373,515 L131.837831,514.644928 L134.192598,508.616994 L133.163085,514.308508 L134.668992,513.903698 L137.359257,509.981327 L137.930511,509.614511 L139.232748,506.330441 L140,498.873929 L138.801691,483.730177 L134.615982,483 Z" id="Fill-228" fill="#F9BE7F"></path>
                <path d="M131.658129,490.742058 C131.658129,489.772646 130.300953,464.789265 129.977782,457.678833 C129.653903,450.569108 122.496659,415.477968 123.02819,413.518639 C123.559012,411.560018 130.361902,406.712961 133.925287,410.267469 C137.488671,413.823392 141.639575,449.59899 141.963454,454.446754 C142.287334,459.293812 140.404296,483.308489 138.461019,493.97343 C136.517032,504.639077 131.658129,490.742058 131.658129,490.742058" id="Fill-230" fill="#F9BE7F"></path>
                <path d="M36.5444982,418.966533 C36.5444982,418.966533 31.3258397,413.423356 32.593869,411.99215 C33.8641414,410.559479 36.6073016,410.07826 36.6073016,410.07826 C36.6073016,410.07826 37.4858007,418.114694 36.5444982,418.966533 M44.5197749,416.318728 C44.4382801,410.979905 41.1553102,402.547949 38.1093482,403.018914 C35.0648814,403.493541 28.8869766,406.508302 27.2690429,409.11216 C25.7871831,411.491887 30.8391138,421.068662 32.3830292,424.16912 C32.5280751,424.459902 32.6402239,424.691356 32.7179804,424.85982 L32.7762978,423.381737 C48.4748901,432.717536 44.6012697,421.656819 44.5197749,416.318728" id="Fill-232" fill="#2A5E6A"></path>
                <path d="M37,422.977704 C37,422.977704 54.7484949,397.98777 62.2440821,395.643526 C69.7396692,393.294402 74,394.153192 74,394.153192 C74,394.153192 53.8697567,413.318415 51.4101545,420.790301 C48.9966879,428.117196 41.2588891,423.8351 37,422.977704" id="Fill-234" fill="#2A5E6A"></path>
                <path d="M46.9979346,418.09137 C46.9979346,418.09137 34.8878899,420.596217 28.5589035,428.561588 C25.5849335,432.31228 22.3641178,470.168224 21.1312796,482.07473 C19.8963555,493.984699 27.6514846,506.256855 32.7441561,510.196605 C37.8403043,514.138432 63.8272532,502.482618 66.9750582,498.873894 C70.1242539,495.264477 72.23183,461.900913 70.1958739,456.585126 C68.1606132,451.2728 50.085245,415.975027 46.9979346,418.09137" id="Fill-236" fill="#2A5E6A"></path>
                <path d="M0.410063677,472.020827 C0.410063677,472.020827 10.5567542,440.753386 14.5413246,435.543669 C18.5314253,430.329734 31.5725287,422.293371 31.6872821,423.049768 C32.2914658,426.91189 33.19705,464.920821 32.9219183,471.825401 C32.6481692,478.721545 33.0221547,508.910628 36.6742167,512.131641 C40.3242048,515.352653 12.2220613,517.047516 6.42977897,510.663837 C0.636805365,504.280862 -0.834250463,484.255331 0.410063677,472.020827" id="Fill-238" fill="#599DAF"></path>
                <path d="M18,433.038822 C18,433.038822 30.6620423,423.126302 34.6729737,422.143037 C38.6811022,421.159773 42.6899314,425.465354 43.1439991,428.345166 C43.5959647,431.225686 53.5672354,465.389704 56.4822379,477.524643 C59.0517847,488.213313 57.5809697,506.747599 57.5809697,506.747599 C57.5809697,506.747599 32.8910382,517.798896 32.8861332,514.323895 C32.816061,473.698323 32.277206,458.798793 28.1380425,448.902531 C24.583281,440.40871 21.3963984,433.180197 18,433.038822" id="Fill-240" fill="#4B7C84"></path>
                <path d="M15,436.04392 C15,436.04392 15.0493827,434.884202 16.8035124,433.21702 C18.5590332,431.551987 23.1119805,439.864965 25.1756216,444.591995 C27.2420449,449.316875 29.216658,456.363339 30.007477,464.906397 C30.7969049,473.449456 31,487.376812 31,487.376812 C31,487.376812 25.1137194,488.884875 26.8789776,487.209091 C27.2677795,486.838526 26.8393323,469.029199 26.2446531,465.13146 C25.6478873,461.243039 22.8351591,446.8118 22.1597983,444.852179 C21.4893062,442.888974 17.1582334,438.450799 15,436.04392" id="Fill-242" fill="#8BC5D4"></path>
                <g id="Group-246" transform="translate(0.000000, 475.000000)">
                    <mask id="mask-4" fill="white">
                        <use xlink:href="#path-3"></use>
                    </mask>
                    <g id="Clip-245"></g>
                    <path d="M0.0226384615,3.59927273 C0.0669461538,2.57281818 15.6078692,0.317545455 16.7176385,0.100545455 C17.8329462,-0.116454545 17.4231,2.96227273 17.4231,2.96227273 C17.4231,2.96227273 1.54917692,6.49281818 0.723253846,6.461 C-0.103361538,6.42854545 -0.0154384615,4.37118182 0.0226384615,3.59927273" id="Fill-244" fill="#8BC5D4" mask="url(#mask-4)"></path>
                </g>
                <path d="M57.855854,296 C57.6550592,296.266334 57.4380599,296.516376 57.2464242,296.792626 C54.4761606,300.824464 51.9475552,305.023469 49.6930172,309.366266 C49.1286781,310.454976 48.5622254,311.554311 48,312.659312 L49.5753585,332.62442 C49.592972,335.69009 49.6782218,350.631692 52.0356231,354.66353 C57.8854448,364.659542 74.9339798,374.213554 81.0303916,374.939597 C87.1253943,375.674848 118.778404,369.468423 122.217279,368.774964 C130.99025,367.01192 137.969455,356.080907 140.932059,341.140014 C143.286642,329.277541 83.8281324,301.525007 57.855854,296" id="Fill-247" fill="#C07B34"></path>
                <path d="M40.0048726,459.969388 C40.1274531,457.324929 47.1736702,439.33078 53.0546512,425.369202 C58.5967331,412.203168 63.8309216,392.256835 69.3427189,396.60919 C74.8473056,400.958695 78.0805473,405.887945 74.4810062,412.565687 C70.8836282,419.236306 54.9532072,453.540923 53.4570038,462.425823 C52.8340063,466.120089 39.7106793,466.281763 40.0048726,459.969388" id="Fill-249" fill="#F9BB73"></path>
                <path d="M77.1789539,628.690608 C77.1789539,628.690608 56.3423871,633.975861 56.0087131,640.824051 C55.7790414,645.571036 60.0857467,647.365962 69.4185064,646.939133 C73.6638214,646.745693 90.1099033,638.488756 91.5370456,636.248779 C92.9706881,634.004596 90.6169144,626.277516 90.6169144,626.277516 C90.6169144,626.277516 79.9834041,624.793076 77.1789539,628.690608" id="Fill-251" fill="#FEFEFE"></path>
                <path d="M76.0401366,624.37718 C76.0401366,624.37718 74,576.905274 74,555.591158 C74,538.274222 74.0662382,533.978402 78.9367332,532.710749 C87.1310612,530.579198 92.5321242,517.379176 92.9600229,540.299265 C93.3998446,563.930102 90.0660759,622.24006 90.0375935,624.33402 C89.9793039,628.63889 76.8641399,629.756179 76.0401366,624.37718" id="Fill-253" fill="#689DB9"></path>
                <path d="M73.2521892,566.732055 C73.2521892,566.732055 69.6276225,494.652413 69.1279837,477.209023 C68.6202754,459.46307 69.4689216,454.480949 74.4935529,454.081509 C79.5222189,453.689088 95.3257333,447.70942 94.9948823,468.703545 C94.7380021,484.959145 91.8968528,566.86333 91.1571453,568.602193 C87.5769611,577.012901 74.2366726,571.635552 73.2521892,566.732055" id="Fill-255" fill="#689DB9"></path>
                <path d="M119.492308,627.281598 C119.492308,627.281598 120.392138,576.048032 119.795888,554.457736 C119.311956,536.91615 119.129038,532.569026 114.375083,531.44168 C106.381225,529.547485 100.780069,516.351612 101.006631,539.581427 C101.240895,563.532941 106.100108,622.490025 106.186112,624.610677 C106.363254,628.971206 118.84407,632.756774 119.492308,627.281598" id="Fill-257" fill="#689DB9"></path>
                <path d="M121.426151,566.385773 C121.426151,566.385773 123.005542,494.219333 122.999985,476.761863 C122.989567,459.007408 121.964422,454.052758 116.766461,453.813345 C111.563639,453.578847 95.0682409,448.103948 96.0412958,469.080295 C96.7920968,485.322447 102.182446,567.108223 103.000617,568.822025 C106.947706,577.116518 120.556583,571.320764 121.426151,566.385773" id="Fill-259" fill="#689DB9"></path>
                <path d="M87.1743869,628.208415 C83.6275682,629.132767 78.2387713,628.697103 75.3927993,626 C70.5900864,627.476098 57.463104,633.101751 56.2021573,637.89692 C54.9606985,642.600371 59.4710913,644.374555 68.7964672,643.935308 C73.0412456,643.73539 90.1113029,635.485721 91.5382587,633.194187 C92.3509811,631.892927 91.9431763,628.780224 91.4408186,626.333913 C90.1351216,627.145051 88.7334281,627.801413 87.1743869,628.208415" id="Fill-261" fill="#2A5E6A"></path>
                <path d="M93.087702,531.406256 C93.087702,531.406256 94.4188337,499.316976 97.1844522,498.989091 C99.9500707,498.654901 114.674371,529.422833 114.938655,530.353242 C115.307681,531.673188 113.89123,501.661213 113.89123,501.661213 C113.89123,501.661213 109.510773,469.985992 108.582657,470.000005 C107.648298,470.010514 81.9059187,471.086649 81.9059187,471.086649 L81,508.05777 C81,508.05777 93.9284167,536.417711 93.087702,531.406256" id="Fill-263" fill="#689DB9"></path>
                <path d="M75.1572123,625.20281 C75.1572123,625.20281 72.9243876,619.294117 74.6617901,619.027036 C76.4037586,618.764444 83.5238364,620.478399 84.5047876,621.408319 C85.4948711,622.340483 84.8145217,627.807034 84.079379,628.787826 C83.3449973,629.781337 77.1274861,627.065642 75.1572123,625.20281" id="Fill-265" fill="#2A5E6A"></path>
                <path d="M83.0685453,627.730319 C83.2575222,627.094965 88.8616129,623.594033 91.0070562,623.037774 C92.8908962,622.543754 91.515441,627.058659 91.515441,627.058659 C91.515441,627.058659 82.1103214,630.936913 83.0685453,627.730319" id="Fill-267" fill="#2A5E6A"></path>
                <path d="M73.4950014,632.893253 C73.9276565,632.700276 74.1236455,632.325862 73.9180419,632.058515 C73.900292,632.029665 73.0401589,630.853851 71.6275586,629.759459 C70.2275312,628.70097 68.2779949,627.570675 65.699075,628.163711 C65.2390554,628.282319 64.9247333,628.6266 65.0157018,628.942672 C65.103712,629.245922 65.5637316,629.406843 66.0289282,629.292724 C67.295831,628.927926 68.9761597,629.632517 70.252677,630.644205 C71.5247568,631.627041 72.3419942,632.734897 72.3449525,632.736179 C72.5246707,632.983651 72.9506696,633.063791 73.3441268,632.947748 C73.3973767,632.93172 73.4506265,632.907358 73.4950014,632.893253" id="Fill-269" fill="#FFFBE2"></path>
                <path d="M77.390351,630.92686 C77.8693484,630.772667 78.1263714,630.436013 77.9378879,630.170672 C77.9277627,630.150756 77.1566937,629.001375 75.8466553,627.905962 C74.5062414,626.839461 72.6027135,625.673376 69.8253074,626.084557 C69.3229443,626.164866 68.9514292,626.466828 69.0051704,626.764292 C69.0612482,627.063683 69.5192164,627.228798 70.0293681,627.151059 C71.4032729,626.881864 73.0708069,627.633555 74.2795939,628.646089 C75.4790345,629.641276 76.2033721,630.718057 76.2064875,630.719342 L76.1994778,630.719342 C76.3552493,630.954487 76.7953038,631.05407 77.2182235,630.971191 C77.2836475,630.957056 77.3342733,630.944207 77.390351,630.92686" id="Fill-271" fill="#FFFBE2"></path>
                <path d="M121.820708,627.178809 C121.474028,626.709468 121.003844,626.321307 120.45349,626 C118.963489,627.702042 116.701403,628.850834 113.650621,628.850834 C111.194973,628.850834 109.253566,628.1018 107.810511,626.922991 C107.223322,629.318128 106.514796,633.089907 107.463109,634.535449 C108.890274,636.715699 125.335897,644.752474 129.582002,644.940756 C138.914188,645.356204 143.220962,643.609138 142.991287,638.988726 C142.657607,632.323136 121.820708,627.178809 121.820708,627.178809" id="Fill-273" fill="#FEFEFE"></path>
                <path d="M111.825186,628.208415 C115.374002,629.132767 120.760378,628.697103 123.606215,626 C128.4087,627.476098 141.536502,633.101751 142.798111,637.89692 C144.038789,642.600371 139.527167,644.374555 130.202234,643.935308 C125.958378,643.73539 108.88841,635.485721 107.462243,633.194187 C106.648838,631.892927 107.056623,628.780224 107.559679,626.333913 C108.865314,627.145051 110.267663,627.801413 111.825186,628.208415" id="Fill-275" fill="#2A5E6A"></path>
                <path d="M123.842484,625.20281 C123.842484,625.20281 126.075347,619.294117 124.338676,619.027036 C122.597438,618.764444 115.477238,620.478399 114.493987,621.408319 C113.50617,622.340483 114.185009,627.807034 114.920164,628.787826 C115.65608,629.781337 121.872176,627.065642 123.842484,625.20281" id="Fill-277" fill="#2A5E6A"></path>
                <path d="M115.931351,627.730319 C115.74237,627.094965 110.138177,623.594033 107.992694,623.037774 C106.10882,622.543754 107.485041,627.058659 107.485041,627.058659 C107.485041,627.058659 116.890333,630.936913 115.931351,627.730319" id="Fill-279" fill="#2A5E6A"></path>
                <path d="M124.504853,632.893253 C124.072961,632.700276 123.876242,632.325862 124.081835,632.058515 C124.099584,632.029665 124.961151,630.853851 126.372198,629.759459 C127.772153,628.70097 129.723805,627.570675 132.300372,628.163711 C132.762586,628.282319 133.074673,628.6266 132.984449,628.942672 C132.895704,629.245922 132.437187,629.406843 131.971275,629.292724 C130.703699,628.927926 129.023459,629.632517 127.747008,630.644205 C126.475734,631.627041 125.6578,632.734897 125.654103,632.736179 C125.477352,632.983651 125.049157,633.063791 124.657199,632.947748 C124.603213,632.93172 124.550705,632.907358 124.504853,632.893253" id="Fill-281" fill="#FFFBE2"></path>
                <path d="M121.608712,630.92686 C121.12967,630.772667 120.87418,630.436013 121.061903,630.170672 C121.07125,630.150756 121.842392,629.001375 123.152554,627.905962 C124.493095,626.839461 126.397582,625.673376 129.174472,626.084557 C129.677662,626.164866 130.049212,626.466828 129.994687,626.764292 C129.938604,627.063683 129.480592,627.228798 128.970392,627.151059 C127.596357,626.881864 125.928665,627.633555 124.719764,628.646089 C123.52021,629.641276 122.795804,630.718057 122.792688,630.719342 L122.799698,630.719342 C122.646249,630.954487 122.203816,631.05407 121.782414,630.971191 C121.716984,630.957056 121.664795,630.944207 121.608712,630.92686" id="Fill-283" fill="#FFFBE2"></path>
                <path d="M49.0209158,421.21581 C49.0209158,421.21581 61.8181038,397.367743 64.4707383,395.515168 C74.3188209,388.648016 87.9337864,384.172495 91.2552536,389.060154 C94.5795577,393.944402 85.8776401,397.171909 82.793066,401.692465 C79.7021085,406.210975 68.6326791,431 68.6326791,431 C68.6326791,431 48.2577514,423.160502 49.0209158,421.21581" id="Fill-285" fill="#AEC112"></path>
                <path d="M62.6482755,413.927724 C61.6580023,401.946384 61.0450753,403.59705 66.7066585,394.559023 C68.9783801,390.931902 91.3946919,380.534669 95.9228467,380.01761 C100.452391,379.498449 127.706101,390.608916 130.687345,393.441531 C132.181441,394.853985 127.825629,393.48497 128.005615,413.927724 C128.185602,434.520411 126.26065,487.781009 126.263429,488.103995 C126.263429,491.806083 70.0881811,493.264778 68.6309158,490.732029 C67.9436315,489.540972 65.9436269,453.794527 62.6482755,413.927724" id="Fill-287" fill="#AEC112"></path>
                <path d="M87.7850233,383.277493 C86.6251942,381.936631 86,365 86,365 L105,366.168446 L104.919503,382.912053 C104.919503,382.912053 93.2548016,389.609496 87.7850233,383.277493" id="Fill-289" fill="#F9BB73"></path>
                <path d="M144,430.94016 C144,430.94016 139.428919,410.375965 136.58209,403.964079 C133.1691,396.286343 127.338255,392.977466 123.791559,394.27466 C118.177987,396.324098 113.562337,405.66589 114.033094,411.290626 C115.047033,423.297329 122.847259,432.788002 125.043662,436 C125.043662,436 137.260371,433.602221 144,430.94016" id="Fill-291" fill="#AEC112"></path>
                <path d="M52.0129791,334.297506 C51.3892652,358.287466 73.3652743,381.72943 91.9751748,381.996385 C117.4056,382.352793 138.365032,356.294114 138.98666,332.306267 C139.610374,308.316307 118.280329,290.78678 92.4438295,290.020431 C66.6052439,289.251265 52.6366931,310.311068 52.0129791,334.297506" id="Fill-293" fill="#FBCA8F"></path>
                <path d="M71.1314179,327.970745 C69.1358517,328.40758 66.5642458,329.305851 65,329.883644 C65.2624812,330.594415 65.5207059,331.298537 65.7689988,332 C66.7564955,331.913564 68.6662233,331.382979 71.0526736,331.12234 C74.9338477,330.696144 80.7885963,330.519282 80.7885963,330.519282 L81,327 C81,327 75.4304336,327.041888 71.1314179,327.970745" id="Fill-295" fill="#D6944C"></path>
                <path d="M128.132264,341.663181 C127.540761,346.75196 128.8799,350.321834 133.229851,350.929806 C137.563288,351.535044 145.265591,348.168284 145.859346,343.073349 C146.458355,337.982518 145.208542,333.669946 140.864596,333.059238 C136.519149,332.454001 128.72677,336.568246 128.132264,341.663181" id="Fill-297" fill="#FBCA8F"></path>
                <path d="M61.8674474,344.664655 C62.4597165,349.754756 61.1205428,353.321862 56.7704801,353.929829 C52.4361813,354.535061 44.734431,351.166964 44.1406606,346.074811 C43.5416355,340.984026 44.791481,336.669442 49.1347877,336.059423 C53.4803464,335.452824 61.273677,339.572502 61.8674474,344.664655" id="Fill-299" fill="#FBCA8F"></path>
                <path d="M121,329.558526 C119.536148,328.997506 116.682832,327.958581 114.550181,327.539015 C110.344253,326.726256 105,327.073897 105,327.073897 L105.503647,331.280744 C105.503647,331.280744 111.008275,331.020214 114.888676,331.317506 C117.52975,331.521295 119.615312,331.988012 120.370783,332 C120.490211,331.148881 120.706547,330.331326 121,329.558526" id="Fill-301" fill="#D6944C"></path>
                <path d="M92.6701764,345.109731 C92.2349658,345.273219 93.5071735,344.842987 93.8462896,345.065273 C90.5017829,347.438003 87.3230044,349.516023 88.1056873,350.813172 C89.2978162,352.793674 92.6541607,353.643382 97,352.863228 C96.9046018,353.02815 96.7897062,353.163673 96.6636692,353.23753 C95.0363296,354.115203 87.7623931,354.764136 86.2443784,352.065865 C84.4847348,348.940946 92.8094438,345.065273 92.6701764,345.109731" id="Fill-303" fill="#E09769"></path>
                <path d="M69.0025149,341.351638 C68.9299953,344.382275 70.434776,346.911409 72.3634209,346.997875 C74.3014433,347.081459 75.9281318,344.688509 75.9975255,341.657151 C76.0694199,338.620029 74.5658896,336.08441 72.6328685,336.002267 C70.6967216,335.915801 69.0737841,338.313074 69.0025149,341.351638" id="Fill-305" fill="#83512C"></path>
                <path d="M107.031776,341.036147 C106.773995,344.062497 108.112712,346.728515 110.028013,346.98053 C111.937709,347.233268 113.700458,344.996181 113.967579,341.971275 C114.22785,338.940593 112.892868,336.275296 110.976946,336.01967 C109.064136,335.765489 107.299519,338.00402 107.031776,341.036147" id="Fill-307" fill="#83512C"></path>
                <path d="M138.403094,306.80889 C138.366273,306.589613 138.315559,306.370336 138.256507,306.14268 C138.294717,301.942207 137.763947,297.109742 136.220964,294.488898 C136.220964,294.488898 128.294851,285.877753 120.405559,283.757614 C105.97335,279.876279 86.5224506,279.363004 68.7812686,280.592769 C66.2809548,280.76805 59.0961131,287.604032 58.0887624,287.837276 C57.4023745,288.002082 49.8548865,290.910639 47.4184873,298.11185 C43.0375541,311.034503 49.8215397,325.550752 54.0079501,343 C54.87844,342.793293 55.7558772,342.61871 56.6353985,342.444127 C55.6405529,326.28051 58.6091111,312.626702 61.8645906,294.974239 C65.2409521,296.335989 123.700637,285.578867 131.305093,316.545049 C132.233939,320.324427 131.71498,338.734582 131.71498,338.734582 L133.207249,340.622176 C133.207249,340.622176 136.074377,329.245632 138.536481,330.575957 C138.536481,330.575957 139.663324,314.001022 138.403094,306.80889" id="Fill-309" fill="#C07B34"></path>
                <path d="M132.519032,285.955901 C128.060215,283.535295 123.664914,284.422637 121.080522,283.814459 C112.824159,281.873844 114.822087,281.610348 110.919387,278.637824 C101.499977,271.461466 96.1060647,273.840767 85.9032919,277.572444 C78.4013568,280.314943 63.5104039,276.893051 59.6987433,288.560242 C58.5900378,291.955071 56.7191413,295.564259 56,298.224148 L60.9937622,296.987851 C62.033306,305.184011 77.1359787,305.101402 84.1770705,304.69049 C89.4891181,304.374294 94.0170969,301.630372 99.6255521,302.165198 C107.184651,302.888745 110.155079,307.593222 114.616719,311.517181 C118.82359,315.2161 123.789123,319.589427 133.11961,317.423772 C138.589036,316.147595 146.461481,314.993909 149,308.458487 C135.502163,308.090305 142.847425,291.571221 132.519032,285.955901" id="Fill-311" fill="#C07B34"></path>
                <path d="M59.7572861,395.917915 C59.7572861,395.917915 67.7296523,397.56795 69.0708973,400.631093 C70.4100167,403.697057 71.8752543,421.445517 72.1182797,424.464236 C72.358471,427.487186 54.1889582,477.201914 51.8571898,480.494228 C49.5240045,483.787953 49.9441621,495.634363 50.2155286,497.90704 C50.4883122,500.171961 68.3340273,460.373666 72.3350895,452.252529 C76.3319005,444.132097 82.2056044,423.611013 81.9944628,419.838495 C81.7861553,416.064568 80.6624286,401.330596 78.6254083,397.483333 C76.5862624,393.63607 72.4512883,390.970628 70.9888848,391.000244 C69.3004606,391.034796 62.5070864,394.398331 59.7572861,395.917915" id="Fill-313" fill="#4B7C84"></path>
                <path d="M84.5255642,414.073976 C88.2201217,412.838394 87.5332501,407.954545 84.0807064,408.438183 C85.7076547,407.205354 85.7048568,405.132521 83.7813367,404.003574 C80.063697,403.873549 73.2607309,407.317491 70.848287,410.067967 L69.4011004,412.431808 C67.0320231,417.393397 67.0732914,424.46772 74.24977,422.731989 C76.1907767,422.259359 82.3964023,419.973946 83.8603759,418.873205 C86.2546339,417.074182 88.4089764,413.251172 84.5255642,414.073976" id="Fill-315" fill="#FBCA8F"></path>
                <path d="M71.9319476,423.750681 C70.3023502,428.80375 58.1384945,454.808775 55.7268595,460.773112 C54.2769194,464.359067 47.6873716,473.318188 41.6579318,470.438754 C39.4752718,469.395554 35.8687397,459.97431 39.6485883,453.779994 C43.1776212,447.998055 63.4922819,421.696723 66.245618,416.720796 C67.9865325,413.57173 72.6139408,421.634002 71.9319476,423.750681" id="Fill-317" fill="#FBCA8F"></path>
                <path d="M71.0221108,404 C71.0221108,404 72.3325137,410.227415 71.9194811,411.750746 C71.5037579,413.271913 66.7061229,417.208205 67.0142155,415.635851 C67.3169266,414.064218 67.544969,407.03801 71.0221108,404" id="Fill-319" fill="#FBCA8F"></path>
                <path d="M84.1388831,362.250939 C84.3568752,361.83126 84.5734285,361.414955 84.7964567,361 C87.0763812,361.860274 89.0757217,362.365642 91.3988129,362.630809 C96.2039929,363.182059 101.554513,362.646327 105.029437,361.120101 L107,364.846604 C102.692677,366.739205 96.3378099,367.404484 90.7469948,366.762146 C90.7362031,366.756073 90.7225336,366.754724 90.7139003,366.750001 C87.9706526,366.438953 85.6101502,365.838448 83,364.856724 C83.3295063,363.980257 83.6978626,363.108514 84.1388831,362.250939" id="Fill-321" fill="#DE7563"></path>
                <path d="M289.996304,111.992417 C289.819246,114.56369 285.03231,116.318206 279.851596,115.951601 C274.674423,115.583556 270.830143,113.395454 271.005784,110.827782 C271.181425,108.255069 278.233995,106.841949 280.690142,107.014088 C284.044327,107.252489 290.171946,109.422585 289.996304,111.992417" id="Fill-323" fill="#FBCA8F"></path>
                <path d="M280.075569,108.752243 C278.415114,108.563526 276.57398,107.999198 274.563847,107 C273.746329,107.324557 272.97003,107.721137 272.32632,108.184268 L272,109.064037 C274.82559,110.714172 277.449893,111.63679 279.864663,111.912116 C279.872907,111.909381 279.881151,111.912116 279.885273,111.912116 C282.972606,112.265847 285.713697,111.537417 288,109.985742 L287.809017,109.550872 C287.217518,108.928197 286.453585,108.356575 285.604465,107.86427 C284.016831,108.64193 282.190125,108.989279 280.075569,108.752243" id="Fill-325" fill="#DE7563"></path>
            </g>
        </g>
    </g>
</svg>