<?xml version="1.0" encoding="UTF-8" standalone="no"?>
<svg width="445px" height="503px" viewBox="0 0 445 503" version="1.1" xmlns="http://www.w3.org/2000/svg" xmlns:xlink="http://www.w3.org/1999/xlink">
    <!-- Generator: Sketch 49.3 (51167) - http://www.bohemiancoding.com/sketch -->
    <title>Group 12</title>
    <desc>Created with Sketch.</desc>
    <defs>
        <polygon id="path-1" points="0 0.335390413 43.1976945 0.335390413 43.1976945 109.440836 0 109.440836"></polygon>
        <polygon id="path-3" points="0.884065 0.1546698 25.18555 0.1546698 25.18555 34.5754924 0.884065 34.5754924"></polygon>
        <polygon id="path-5" points="0.621514473 0.123830321 58.467791 0.123830321 58.467791 94.6265835 0.621514473 94.6265835"></polygon>
    </defs>
    <g id="Dis" stroke="none" stroke-width="1" fill="none" fill-rule="evenodd">
        <g id="01desktop_01home" transform="translate(-121.000000, -2340.000000)">
            <g id="Group-12" transform="translate(121.000000, 2340.000000)">
                <g id="Group-8">
                    <path d="M163.999729,481.593315 C164.096656,487.92311 138.217003,493.459556 106.185303,493.963899 C74.1536019,494.462576 48.1029004,489.73648 48.0002713,483.406685 C47.9033437,477.07689 73.7943998,471.534777 105.820399,471.036101 C137.8521,470.537424 163.902801,475.26352 163.999729,481.593315" id="Fill-1" fill="#E2E1E8"></path>
                    <path d="M86,277.309938 L92.2114638,464 L101.397351,462.818273 L111,282.991315 C111,282.991315 89.8193652,264.992711 86,277.309938" id="Fill-3" fill="#F9C38A"></path>
                    <path d="M109,284.664102 L109.574262,468.77836 L118.621817,469 L135,288.915034 C135,288.915034 113.12531,272.093162 109,284.664102" id="Fill-5" fill="#F9C38A"></path>
                    <path d="M109.390989,467.025032 C109.254993,464.639187 110.059636,457 110.059636,457 C110.059636,457 140.052441,468.581993 147.101572,470.911833 C147.15257,470.928634 147.061906,470.934235 146.903244,470.939835 C152.450752,472.681615 156.740295,474.014552 156.740295,474.014552 C156.740295,474.014552 157.437275,477.290889 156.547634,477.251685 C155.131008,477.184479 142.381374,478.17018 141.134743,477.97416 C127.172478,475.705926 109,472.855233 109,472.855233 L109.390989,467.025032 Z" id="Fill-7" fill="#F9C38A"></path>
                    <path d="M109.389162,467 C115.164544,468.785404 120.838406,470.920127 126.726589,472.367303 C130.990446,473.420802 135.192262,474.008544 139.57456,474.224789 C142.14641,474.352318 145.609383,472.683353 148.237633,471.424698 C153.121893,472.943955 156.742787,474.052902 156.742787,474.052902 C156.742787,474.052902 157.436509,477.296572 156.545386,477.257759 C155.12974,477.196767 142.383291,478.17264 141.131206,477.973029 C127.172151,475.738501 109,472.916232 109,472.916232 L109.389162,467.149708 C109.389162,467.10535 109.389162,467.044358 109.389162,467" id="Fill-9" fill="#DE4B63"></path>
                    <path d="M103.01862,466.609912 C102.487587,464.245794 99.6040218,457 99.6040218,457 C99.6040218,457 73.6976167,476.441459 67.5022344,480.624129 C67.4565541,480.658227 67.5422046,480.641178 67.6963754,480.595714 C62.7971698,483.800913 59,486.267324 59,486.267324 C59,486.267324 66.3316783,488.256365 67.1824727,487.972217 C68.5414598,487.528944 74.0801887,486.43213 75.2336147,485.903613 C88.1497021,479.913757 105,472.196277 105,472.196277 L103.01862,466.609912 Z" id="Fill-11" fill="#F9C38A"></path>
                    <path d="M102.982955,467 C97.875,470.36455 92.9659091,474.056368 87.6534091,477.116615 C83.8068182,479.332854 79.8977273,481.084027 75.7045455,482.502191 C73.2443182,483.334716 69.8295455,481.623733 68.3579545,480.72231 C64.0397727,483.575861 59,487.055242 59,487.055242 C59,487.055242 63.7272727,490.207354 66.1079545,489.989175 C68.3977273,489.776737 74.0795455,487.204522 75.2329545,486.670558 C88.1534091,480.601737 105,472.787485 105,472.787485 L103.022727,467.143539 C103.011364,467.103348 102.994318,467.045932 102.982955,467" id="Fill-13" fill="#DE4B63"></path>
                    <path d="M49.0172578,176.278713 C49.0172578,176.278713 35.5004385,179.807583 28.7679231,189.395668 C25.6030655,193.911713 23.848008,238.141722 23.0481622,252.069977 C22.2483164,265.992558 31.5932779,279.886772 37.5201931,284.215594 C43.4528627,288.555763 72.1494902,273.6687 75.5157479,269.31151 C78.8877598,264.948648 75.5272564,239.531711 75.0438964,232.96756 C71.8157415,189.293547 52.3892698,173.657592 49.0172578,176.278713" id="Fill-15" fill="#779155"></path>
                    <g id="Group-19" transform="translate(0.000000, 180.000000)">
                        <mask id="mask-2" fill="white">
                            <use xlink:href="#path-1"></use>
                        </mask>
                        <g id="Clip-18"></g>
                        <path d="M0.13917037,61.2903701 C0.13917037,61.2903701 9.23087407,24.9872366 13.4573185,18.8061684 C17.683763,12.6251002 37.1390963,-0.491932534 37.3102074,0.376482009 C38.1714667,4.76963793 36.6200593,51.4823941 36.6428741,59.4173191 C36.6713926,67.3465682 38.5479111,101.963956 42.8028741,105.471669 C47.0635407,108.985059 15.5848,112.356551 8.76887407,105.324096 C1.95865185,98.2973166 -0.665051852,75.3893356 0.13917037,61.2903701" id="Fill-17" fill="#AEC112" mask="url(#mask-2)"></path>
                    </g>
                    <path d="M16,195.219663 C16,195.219663 29.656143,183.543585 34.0048733,182.228762 C38.3536037,180.930796 42.7249249,185.437155 43.3631152,188.668024 C43.9956578,191.898892 56.5617943,229.995047 60.3344591,243.559076 C63.6609555,255.504861 62.932402,276.513936 62.932402,276.513936 C62.932402,276.513936 36.3712604,290.224056 36.2018293,286.290825 C34.1912475,240.406872 32.8922761,223.606356 27.8827646,212.63264 C23.5735681,203.22098 19.7331309,195.208425 16,195.219663" id="Fill-20" fill="#76A82C"></path>
                    <path d="M60,351.101612 C60,343.105139 68.9268265,274.694682 71.6054492,250.699543 C73.2264183,236.222381 93.2356153,201.742596 109.071679,200.060934 C123.120078,198.57375 146.59539,224.525108 146.606886,254.257345 L160,350.209301 C143.928263,359.984675 72.4964074,360.871266 60,351.101612" id="Fill-22" fill="#DE4B63"></path>
                    <path d="M66.470231,142.302702 C66.470231,142.302702 85.5584994,134.026094 104.61821,132.17803 C117.138103,130.970552 131.268677,136.191617 137.402968,139.207477 C139.573387,140.267563 144.976589,161.548649 147.444014,176.837698 C149.283159,188.237874 145.970413,233.657176 145.970413,233.657176 C145.970413,233.657176 95.839434,240.261456 69.4402787,231.293241 C68.2751062,230.902086 65.4706957,192.744657 66.0875518,182.347878 C67.1156452,165.069042 67.9723898,149.609926 66.470231,142.302702" id="Fill-24" fill="#964F24"></path>
                    <path d="M123.942149,133.664025 C123.942149,133.664025 109.694759,129.901293 104.808139,130.001985 C102.894738,130.039083 90.205567,133.844212 88,135.010129 C88.2577935,139.520107 98.8216001,144.273868 107.958949,143.987689 C121.495974,143.55312 124.474922,134.019099 123.942149,133.664025" id="Fill-26" fill="#F1AB67"></path>
                    <path d="M36.0297978,178.832901 C36.0297978,178.832901 30.513356,172.917874 31.7275276,171.267169 C32.9472434,169.616463 35.6916039,168.946612 35.6916039,168.946612 C35.6916039,168.946612 36.9445847,177.840085 36.0297978,178.832901 M43.9634947,175.507567 C43.6419332,169.580578 39.9439767,160.370122 36.8891431,161.033992 C33.8398536,161.703844 27.7412746,165.352142 26.222174,168.318626 C24.8305892,171.039898 30.3636636,181.440536 32.0657215,184.813717 C32.2209581,185.1307 32.3429297,185.381894 32.4260921,185.561319 L32.4260921,183.922575 C42.7160581,189.981142 44.2795119,181.440536 43.9634947,175.507567" id="Fill-28" fill="#76A82C"></path>
                    <path d="M32.9866163,183.672906 C32.9866163,183.672906 42.5037286,186.984843 43.7730634,185.706551 C45.0423981,184.42826 56.646088,163.243486 59.8223228,159.722375 C62.9985576,156.195453 65.3227732,145.207958 69.0090603,144.580433 C72.6953474,143.947098 70.1334938,143 70.1334938,143 C70.1334938,143 59.9440398,143.668198 53.916149,151.029994 C47.882462,158.3976 35.200707,177.914785 32.9866163,182.080852 C30.7667296,186.235299 32.9866163,183.672906 32.9866163,183.672906" id="Fill-30" fill="#779155"></path>
                    <path d="M75.0556734,191.573428 C75.1666302,182.682979 77.8763102,177.559094 76.7083447,166.050148 C75.5403791,158.929872 68.7253002,147.200361 67.7675684,148.043031 C64.9177325,150.554074 37.9844469,200.113235 31.000013,218.323951 C30.9941731,219.805692 32.9621951,220.603118 33.102351,220.806716 C40.5539712,221.598486 45.0097597,219.641683 52.4205011,220.557874 C58.0676145,212.334775 73.0876515,192.913782 75.0556734,191.573428" id="Fill-32" fill="#7E3E00"></path>
                    <path d="M28.496372,228.00304 C31.0710657,232.150317 38.2836181,235.91245 42.3133263,232.926187 L64.138544,209.370994 L75,195.745822 L73.9655756,186 L44.3935423,208.310452 L32.5260802,217.431112 C32.5260802,217.431112 26.2172282,224.324635 28.496372,228.00304" id="Fill-34" fill="#F9C38A"></path>
                    <path d="M60,144.055788 C60,144.055788 68.9727047,171.213714 70.090039,174.116474 C71.2073733,177.013618 84.4225452,181 84.4225452,181 L92,168.67029 L85.0634527,134 C85.0634527,134 60.8110599,142.202963 60,144.055788" id="Fill-36" fill="#AEC112"></path>
                    <path d="M78.7852668,135 C80.103047,137.526821 92.2129928,175.598344 91.9971495,185.699988 C91.247378,219.49058 64,276 64,276 C64,276 64.8633732,266.868475 64.2215234,262.452178 C63.5796736,258.035881 79.2339937,207.973239 79.3362353,189.9922 C79.3759959,183.652586 66.1584331,142.569183 66.9025245,140.155166 C67.4818934,138.265691 78.7852668,135 78.7852668,135" id="Fill-38" fill="#779155"></path>
                    <path d="M48.8571333,203 L31.3355334,214.363041 C31.3355334,214.363041 26.2872309,227.159815 28.6118788,230.859409 C31.225662,235.036915 41.4784001,234.750169 45.5841216,231.74214 L59,216.482717 C53.3329479,213.873885 51.5056127,208.212043 48.8571333,203" id="Fill-40" fill="#964F24"></path>
                    <path d="M95.2924683,178.506358 C94.986722,178.381008 95.384769,177.80554 95.4770698,177.685888 C96.0077992,176.842628 96.0943311,175.874018 95.9154984,174.557848 C95.8001225,174.364126 95.5232202,173.919705 95.3328498,173.788658 C93.388765,174.859826 91.1447027,176.101926 91.1447027,176.101926 C91.1447027,176.101926 92.846498,174.472382 94.3809982,173.019468 C94.357923,172.825746 94.5944437,172.056555 94.5944437,171.834345 C94.5944437,171.726088 94.6290565,171.634925 94.6752069,171.555157 C94.4559926,170.956898 94.0925583,170.125033 93.7637369,169.48689 C93.6656673,169.475495 93.5733666,169.458402 93.475297,169.452704 C91.392761,170.717595 87.3488339,173.184701 87.2796083,172.979584 C87.2161515,172.768769 91.3523794,169.048167 92.9445676,167.629438 C93.9079568,166.170826 93.2733891,164.42163 91.7446577,164 C89.8005729,165.754893 85.9066344,169.469797 84.6836493,170.193406 C83.2183747,171.065155 76.3361991,175.72018 76.0650656,175.087735 C75.7997009,174.455289 74.0517552,168.415722 74.0517552,168.415722 C73.6075578,168.837352 69.8116889,176.842628 68.9694444,179.235664 C68.6810045,180.044738 67.8329913,191.445847 68.0291304,192.095385 C68.2368071,192.750621 68.4790966,193.536905 69.9039896,194.397258 C71.3231139,195.246216 75.1362892,194.949936 75.1362892,194.949936 C78.8687013,192.967134 93.9944888,182.956266 94.6694381,182.32382 C94.8136581,182.187076 95.1367107,181.913586 95.5520642,181.560328 C95.6212897,181.423583 95.8520416,179.252757 95.2924683,178.506358" id="Fill-42" fill="#F9C38A"></path>
                    <path d="M99.8554913,142.005085 C97.8092486,140.560372 97.5086705,138.098582 96,136.237792 L97.8092486,117 L115.566474,118.15577 L116,137.653611 C111.895954,141.479209 103.682081,144.698029 99.8554913,142.005085" id="Fill-44" fill="#F1AB67"></path>
                    <path d="M155.61157,230.799779 C151.347107,230.513695 148.570248,230.559468 144.707989,231.600815 L143,237.379716 L148.107438,282.632517 L154.322314,284 L159,236.521464 C158.988981,235.005217 158.322314,231.572207 158.101928,230.09029 C157.055096,229.666886 156.757576,230.874161 155.61157,230.799779" id="Fill-46" fill="#F9C38A"></path>
                    <path d="M148.680862,192 C148.680862,192 143.443857,236.982468 143.030862,234.931968 C142.543298,232.507588 147.958121,233.792802 150.413146,233.874588 C155.736193,234.049844 159,235.446054 159,234.75087 C159,234.049844 155.208477,206.166556 148.680862,192" id="Fill-48" fill="#7E3E00"></path>
                    <path d="M72.8484209,93.6155796 C71.9215038,97.1077609 68.0383244,96.2471285 65.0601234,94.3162226 C62.087407,92.4018673 59.2518085,87.2104887 60.1787256,83.7293411 C61.1111274,80.2426767 64.2812936,78.9737956 67.2485253,80.8991847 C70.2267263,82.8190569 73.7808227,90.134432 72.8484209,93.6155796" id="Fill-50" fill="#F9C38A"></path>
                    <path d="M135.729838,38.4039125 C135.729838,38.4039125 154.186188,57.2149633 154.97375,78.2480133 C155.795554,100.344248 137.048149,125 137.048149,125 C137.048149,125 113.735164,114.126268 98.4062354,110.31793 C76.417269,104.85575 85.240249,57.8562491 88.6473118,49.9358067 C92.0543746,42.0097389 111.23551,19.4184769 135.729838,38.4039125" id="Fill-52" fill="#E27700"></path>
                    <path d="M68.341474,73.5276548 C64.7819057,100.459183 89.8837962,126.564211 104.896391,125.990722 C123.48589,125.282293 147.385848,100.852754 149.789712,77.0922871 C152.199355,53.3430646 133.598299,34.6034438 109.501871,32.1970358 C85.4054433,29.7850054 71.4734318,49.862769 68.341474,73.5276548" id="Fill-54" fill="#F9C38A"></path>
                    <path d="M139.823031,86.2067084 C138.402491,91.238767 138.688891,94.9036682 141.724721,95.8227657 C144.760552,96.7533519 151.004053,93.9558489 152.424593,88.9237903 C153.850861,83.8917316 152.533425,79.0664699 149.491866,78.1358837 C146.456035,77.2052976 141.243571,81.1803941 139.823031,86.2067084" id="Fill-56" fill="#FBCA8F"></path>
                    <path d="M112,73.86544 C112,73.86544 115.967463,72.9228801 119.2014,73.0050801 C121.498353,73.0763201 125,73.88736 125,73.88736 L124.26112,75.61356 C124.26112,75.61356 122.355025,75.97524 119.843904,75.83276 C117.348847,75.67932 112.813839,77 112.813839,77 L112,73.86544 Z" id="Fill-58" fill="#D27A55"></path>
                    <path d="M94,75.2333782 C94,75.2333782 89.6172938,74.7799087 86.142514,75.1371877 C83.6709367,75.3982762 80,76.4014056 80,76.4014056 L81.020016,77.8305215 C81.020016,77.8305215 83.1160929,77.972517 85.806245,77.624399 C88.4739792,77.2671201 93.5292234,78 93.5292234,78 L94,75.2333782 Z" id="Fill-60" fill="#D27A55"></path>
                    <path d="M101.137651,91.1515767 C100.794562,91.3375041 101.803036,90.8473318 102.088943,91.0501617 C99.4845867,93.5573646 96.9997917,95.7603225 97.696366,97.0111069 C98.7464258,98.90982 101.501533,99.5915538 105,98.6112093 C104.927224,98.7802343 104.838852,98.9154542 104.740084,98.9999666 C103.4561,99.9465061 97.5872014,100.932485 96.2408375,98.3407695 C94.6761444,95.3377603 101.252014,91.1008692 101.137651,91.1515767" id="Fill-62" fill="#E0894A"></path>
                    <path d="M84.0003748,88.5201676 C84.0283942,91.5568304 85.6198968,94.005752 87.5476323,93.9999899 C89.4865757,93.9827033 91.0276433,91.5164952 90.9996239,88.4855946 C90.9716045,85.4489318 89.3857058,82.994248 87.4523663,83.0000101 C85.5190269,83.0115345 83.9723554,85.4835048 84.0003748,88.5201676" id="Fill-64" fill="#633C1E"></path>
                    <path d="M117.000536,88.5172956 C117.022952,91.5613151 118.614448,94.005755 120.54778,93.9999898 C122.486715,93.9826943 124.022173,91.5209588 123.999758,88.4827044 C123.966135,85.4444501 122.374638,82.994245 120.44691,83.0000102 C118.519182,83.0057753 116.966913,85.4790412 117.000536,88.5172956" id="Fill-66" fill="#633C1E"></path>
                    <path d="M150.06031,269 C149.813326,269.825314 139.830557,282.736385 139.830557,282.736385 L136.83228,288.615332 L135,298.146009 L136.918438,299.197436 L139.284894,292.7419 L141.318208,289.700676 L139.899483,296.110989 L136.108558,308.547222 L138.285468,309.434717 L144.385411,295.489177 L140.364733,310 L142.547387,309.649524 L146.010913,302.012547 L144.0695,309.293396 L145.809879,308.858128 L149.35382,303.951468 L150.048823,303.510547 L151.955773,299.350062 L153.856979,289.779815 L155,270.531918 L150.06031,269 Z" id="Fill-68" fill="#F9C38A"></path>
                    <path d="M128.036,223.018 C128.024,223.012 128.012,223.006 128,223 C128.006,223.018 128.012,223.03 128.018,223.042 C128.138,223.168 128.144,223.156 128.036,223.018" id="Fill-70" fill="#633C1E"></path>
                    <path d="M146.225663,136.066213 C145.71245,135.25236 145.931575,133.47668 145.343398,132.41241 C144.582229,131.040811 143.717264,130.226957 142.310253,129.498473 C139.934482,128.252082 134.756222,128.986258 133.14162,127 L133.14162,128.616324 C130.869645,134.125486 121.355025,133.209189 120.703418,139.589117 C120.305534,143.425042 124.411236,145.32593 124.630361,148.905747 C124.837953,152.240838 122.214224,153.470155 120.046045,155.456413 C117.889398,157.442671 115.455962,160.254164 116.107569,163.520961 C116.718811,166.571488 120.547724,169.069961 122.329553,171.596891 C124.497733,174.675875 125.23007,176.96377 123.6443,180.321627 C122.369918,183.04206 120.697652,184.755136 121.355025,188.078845 C122.369918,193.189617 128.40161,192.757079 129.88935,197.127984 C131.498186,201.891588 128.332413,205.915325 134.208411,209 C131.769209,202.768046 139.121414,200.275264 141.329959,195.853137 C143.930622,190.651305 138.769662,186.018601 141.404923,180.987507 C144.213177,175.626319 150.071876,172.069267 148.468807,165.131594 C147.834499,162.388395 145.637487,160.259856 145.251136,157.380067 C144.72639,153.44739 146.842672,153.231122 149.189611,150.846474 C151.167499,148.826069 152.493779,145.069822 151.824872,142.190033 C150.97144,138.524847 147.840265,138.621599 146.225663,136.066213" id="Fill-72" fill="#E27700"></path>
                    <path d="M157.165363,59.4167949 C155.878046,56.4108847 156.779735,53.7606357 156.138912,50.5367396 C154.692806,43.2915783 147.382885,42.872816 143.407513,37.8935602 C141.252533,35.1974194 142.14288,33.7002007 139.154262,31.4859234 C136.488892,29.5125778 131.884038,28.2677638 128.600529,28.4398579 C125.390742,28.6004791 124.228186,27.5507051 121.058097,26.9082205 C118.211254,26.3345735 113.4306,26.5984511 110.504363,26.1510065 C104.20388,25.1815431 97.1888514,29.1569166 91.750361,30.2009542 L91.1038669,30.5967706 C90.8259878,39.7292305 90.6501868,49.8540997 96.9223144,57.0476329 C100.767253,61.4475052 104.742625,62.2678204 110.135748,63.5298438 C115.971208,64.90086 116.288784,67.9641349 118.126189,73.4309907 C119.146969,76.4598467 119.83316,78.7888535 122.197968,80.9629755 C124.403987,82.9879494 127.630787,83.9860951 129.655335,86.1143254 C133.857547,90.5314072 131.623172,96.7898957 135.666596,100.983255 C137.407594,102.784507 140.413225,103.805598 141.059719,106.610732 C141.796949,109.828892 138.819673,112.519296 136.98794,114.7221 C135.439756,116.580717 132.139233,119.552208 131.702566,121.950052 C130.840574,126.636748 135.020102,125.288678 137.957681,126 C139.806427,122.40897 144.422623,121.445243 146.980244,118.353286 C149.089857,115.800557 148.834662,113.454341 149.33371,110.425484 C149.951849,106.645151 151.48869,105.985457 153.774104,103.094276 C158.418654,97.220131 155.038737,91.0017977 157.533978,84.7892009 C158.690862,81.9152295 161.203116,80.2860721 161.770216,77.2457431 C162.331645,74.2971976 161.781558,70.4537628 161.010302,67.7059938 C160.176665,64.7345024 158.378957,62.2620839 157.165363,59.4167949" id="Fill-74" fill="#E27700"></path>
                    <path d="M131.288946,123.915993 C134.461897,124.390543 137.56286,124.274664 140.852096,123 C142.103556,123.645609 142.928634,124.589192 142.995083,125.681762 C143.133519,127.844828 140.331577,129.765102 136.748857,129.980305 C133.166137,130.195508 130.13716,128.62287 130.004262,126.448767 C129.948887,125.527257 130.436182,124.638854 131.288946,123.915993" id="Fill-76" fill="#D40A11"></path>
                    <path d="M88.2752896,30.1106532 C82.1940169,31.6633011 77.3688397,34.4796002 74.6685112,40.2821966 C73.16341,43.5121574 72.2393222,45.5351329 69.8654678,48.1304348 C67.9896248,50.1760767 66.3074529,52.1480528 65.8315753,54.9813517 C65.3169635,58.0243149 65.7983745,59.8319596 65.4663669,62.9032557 C65.2782293,64.6939007 64.5644129,69.5501751 64,71.1934886 C64.3154072,76.3274263 65.6268373,79.1210591 67.8955559,84 C68.2054297,80.6397074 69.2567871,77.8460746 70.6678195,75.2054399 C71.5808404,73.1371317 71.9073145,71.5051515 73.5618191,69.6805069 C74.1704997,69.0118483 74.6740446,68.5018545 75.1222549,68.0201937 C75.243991,67.833196 75.3601937,67.6518648 75.4763963,67.4648671 C75.7530693,67.0342056 76.0574096,66.67721 76.3838838,66.3712137 C76.6882241,65.8442201 76.975964,65.2322275 77.2415701,64.4105708 C78.0549888,61.9116011 79.7426941,59.219967 81.3695314,56.9589944 C85.0160816,51.8873892 90.8206813,54.329693 91.2190904,46.3284566 C91.49023,40.911189 90.8926163,34.3776015 95.2640498,30.5073151 L96,29 C93.8640844,29.8669895 90.6768113,29.4986606 88.2752896,30.1106532" id="Fill-78" fill="#E27700"></path>
                    <path d="M93.8485537,31.014688 C93.8174219,30.3128303 91,54.9978251 91,54.9978251 C91,54.9978251 93.8485537,56.5095186 94.9148155,55.8196585 C95.3428769,55.5437144 94.0275611,34.8539095 93.8485537,31.014688" id="Fill-80" fill="#F9C38A"></path>
                    <g id="Group-84" transform="translate(293.000000, 268.000000)">
                        <mask id="mask-4" fill="white">
                            <use xlink:href="#path-3"></use>
                        </mask>
                        <g id="Clip-83"></g>
                        <path d="M9.612265,0.1546698 C9.641515,1.11156757 4.177615,13.1387826 4.177615,13.1387826 L0.884065,29.9614853 L4.616365,29.8844935 L9.003865,18.9901575 L10.799815,30.4619318 L11.776765,34.3610153 L15.000115,34.5754924 L16.597165,28.944094 L17.468815,33.783577 L20.738965,32.4252221 L21.780265,30.610416 L22.792315,32.1337532 L25.190815,30.6324136 L18.083065,2.24994595 L9.612265,0.1546698 Z" id="Fill-82" fill="#FBCA8F" mask="url(#mask-4)"></path>
                    </g>
                    <path d="M283,226.600488 L300.119914,275 L309,272.655543 L297.820557,222.880917 C297.820557,222.880917 283,216.760531 283,226.600488" id="Fill-85" fill="#FBCA8F"></path>
                    <path d="M307.999924,493.491666 C307.948781,499.003948 281.94499,503.257564 249.917594,502.98785 C217.884515,502.718136 191.954599,498.026235 192.00006,492.513953 C192.051204,486.996052 218.054994,482.742435 250.088073,483.01215 C282.115469,483.287483 308.051068,487.973765 307.999924,493.491666" id="Fill-87" fill="#E2E1E8"></path>
                    <path d="M216.954717,489.730201 C216.954717,489.730201 232.804679,479.154496 236.016,475.858838 C239.221736,472.568872 244.359849,469.278906 246.923321,472.022441 C249.492377,474.765977 252,487.282648 252,487.282648 C252,487.282648 233.754113,496.964711 230.542792,498.609695 C227.331472,500.254678 215,496.167834 215,496.167834 L216.954717,489.730201 Z" id="Fill-89" fill="#CE1F33"></path>
                    <path d="M284.306818,494.531683 C284.306818,494.531683 268.267816,483.386557 264.525758,480.575694 C260.789336,477.776399 255.131164,475.295206 253.034709,478.528276 C250.93262,481.761346 251.000247,491.015214 251.000247,491.015214 C251.000247,491.015214 263.635329,501.680296 267.101241,502.813895 C270.567153,503.94171 285,499.575041 285,499.575041 L284.306818,494.531683 Z" id="Fill-91" fill="#CE1F33"></path>
                    <path d="M242.369645,255.559432 L249.755461,364.291072 L251,471.251118 L237.73461,473 L226.516312,364.506843 L210,271.344797 C210,271.344797 236.757589,242.05102 242.369645,255.559432" id="Fill-93" fill="#4F3720"></path>
                    <path d="M275.984087,375.389034 L280,280.272349 C280,280.272349 247.139402,261.45675 244,274.755377 L255.893062,376.79098 C261.266709,380.105704 272.644176,379.731095 275.984087,375.389034" id="Fill-95" fill="#4F3720"></path>
                    <path d="M266.251069,366.446213 C263.701303,368.18493 260.1452,363.766879 255.464033,374.763551 C252.071883,382.738846 248.549701,458.546905 249.047217,481.133123 C250.873324,482.763526 260.049089,481.783004 263.870911,480.728372 C268.314627,453.86092 273.0071,408.34074 274.96324,377.408681 C275.556866,368.013909 268.800835,364.701796 266.251069,366.446213" id="Fill-97" fill="#4F3720"></path>
                    <path d="M218.220137,274.962798 C218.220137,274.962798 208.178143,228.452673 223.561016,218.278229 C238.94389,208.10945 270.13805,218.493501 275.267579,224.424817 C280.391395,230.356132 287.451638,270.725335 285.737987,278.350503 C284.024336,285.981336 227.622369,286.831094 218.220137,274.962798" id="Fill-99" fill="#4F3720"></path>
                    <path d="M141.245378,211.609202 L188.314408,233 L197,225.681805 L147.913161,196 C147.913161,196 136.245949,201.89767 141.245378,211.609202" id="Fill-101" fill="#FBCA8F"></path>
                    <path d="M257.130185,138.664391 C257.130185,138.664391 268.741621,131.583032 278.49432,137.108423 C281.645104,138.89154 304.352289,140.92452 300.578147,229.228552 C300.578147,229.228552 288.468027,233.180938 284.308538,232.993541 C280.160382,232.806143 269.914665,188.029468 266.140523,188.693878 C263.471423,189.165211 253.038699,211.880075 253.038699,211.880075 C253.038699,211.880075 246.380116,146.523734 257.130185,138.664391" id="Fill-103" fill="#B5B24D"></path>
                    <path d="M247.424092,152.579231 C247.424092,152.579231 216.983981,152.18823 213.811478,137.364663 C212.5493,131.470886 145,198.970441 145,198.970441 C145,198.970441 159.98695,203.737213 163.989535,205.830222 C167.992119,207.923232 212.554985,188.200642 211.378089,190.696154 C210.201193,193.191665 213.77168,212 213.77168,212 C213.77168,212 253.189178,165.166038 247.424092,152.579231" id="Fill-105" fill="#B5B24D"></path>
                    <path d="M209.406182,198.790725 C209.642467,206.522511 208.916324,220.03603 208,234 C211.988025,233.88026 215.964524,233.646482 219.906444,233.407002 C233.057705,232.620139 246.208966,232.186794 259.38328,231.867487 C267.924107,231.662218 276.459172,231.491161 285,231.342911 C284.331487,222.790051 283.611107,214.465267 282.873438,207.349287 C279.905471,178.725714 279.772921,138.350512 277.277524,137.301361 C275.807949,136.685555 260.996931,133.389853 247.534466,132.181048 C234.077764,130.972244 212.322281,136.212296 212.322281,136.212296 C213.878303,145.831413 208.731906,176.695836 209.406182,198.790725" id="Fill-107" fill="#FEFEFE"></path>
                    <path d="M226,132.504068 C226,132.504068 228.726908,141.558053 248.708861,143.721866 C266.010026,145.598587 272,137.363341 272,137.363341 C265.95814,135.768394 256.474496,131.398237 246.160672,130 L226,132.504068 Z" id="Fill-109" fill="#FBCA8F"></path>
                    <path d="M211.830701,227.20339 C211.463216,226.124294 192.57447,226 192.57447,226 L187,232.694915 L207.720519,249 C207.720519,249 213.001001,230.621469 211.830701,227.20339" id="Fill-111" fill="#FBCA8F"></path>
                    <path d="M284.763418,142.779052 C284.763418,142.779052 292,284.744019 292,289.019487 C292,293.294955 281.785658,297.570423 279.656247,297.999113 C277.526835,298.422087 270.705887,147.483209 269.003497,135.50847 C268.735897,133.616518 283.915069,137.217514 284.763418,142.779052" id="Fill-113" fill="#B5B24D"></path>
                    <path d="M210.410136,136.692084 C210.410136,136.692084 212.950602,134.559991 228.18774,132.00034 C229.438169,131.795112 229.879498,224.546838 229.879498,237.339393 C229.879498,240.355107 231.576914,294.489734 231.99561,295.766709 C232.419963,297.043684 201.945689,292.779499 200.253931,290.225549 C198.556515,287.660197 205.753558,149.912198 210.410136,136.692084" id="Fill-115" fill="#B5B24D"></path>
                    <path d="M211.830449,26.1322197 C218.491292,35.666476 235.880623,43.9237718 244.675688,40.0012699 C253.465017,36.0787681 251.772555,17.2049492 247.532794,7.75086084 C243.293033,-1.70895377 233.132523,-1.31384045 224.343195,2.61438765 C215.553866,6.53116319 205.892489,17.6286939 211.830449,26.1322197" id="Fill-117" fill="#904C11"></path>
                    <path d="M248.651035,21.7491883 C231.28334,17.5678283 216,32.2527646 216,32.2527646 C216,32.2527646 218.65019,42.5556356 221.023236,46.4247874 C223.199972,49.981731 250.677651,35.9881129 257,33.295317 C254.956063,29.5934196 251.341642,22.4014804 248.651035,21.7491883" id="Fill-119" fill="#A6B5BE"></path>
                    <path d="M259,34 L258.933014,32 C258.607656,32.0368664 257.92823,32.1705069 257,32.3686636 C257.842105,33.1336406 258.54067,33.7281106 259,34" id="Fill-121" fill="#A6B5BE"></path>
                    <path d="M240.155992,138.560708 C245.205807,139.208676 250.261315,139.707554 255.345289,140 L256,138.876091 L250.733846,94.1318873 L236,94 L238.857956,136.811768 L240.155992,138.560708 Z" id="Fill-123" fill="#FBCA8F"></path>
                    <path d="M288.997886,78.9152923 C288.803279,101.420426 271.895334,125.167727 251.541694,124.999107 C224.617195,124.785522 211.813175,96.5192085 212.002059,74.019695 C212.190943,51.5033195 231.623059,35.8216701 254.540937,36.0015313 C277.458815,36.1870132 289.181046,56.4101582 288.997886,78.9152923" id="Fill-125" fill="#FBCA8F"></path>
                    <path d="M210.152825,75.7813945 C210.370124,78.362843 242.07855,57.3712872 245.206504,50.2550172 C248.334459,43.1387472 246.641818,30.8653424 245.566762,29.5169965 C244.485988,28.1744127 233.077817,28.7333424 221.463784,40.0387041 C213.183568,48.0884443 209.140672,63.8191463 210.152825,75.7813945" id="Fill-127" fill="#904C11"></path>
                    <path d="M254.598708,111.999966 C258.373534,112.005914 262.519263,111.226818 267,109.549681 L265.48648,105.749359 C261.346734,107.301603 257.655659,107.973647 254.419239,107.961753 C250.267528,107.949858 246.863604,106.855556 244.045944,105 L242,108.360222 C245.493659,110.661825 249.735104,111.994019 254.568796,111.999966 C254.580761,111.999966 254.586743,111.999966 254.598708,111.999966" id="Fill-129" fill="#DE7563"></path>
                    <path d="M218.993027,86.2173165 C218.774727,91.6352749 217.057057,95.121073 213.098946,94.996782 C209.146579,94.8668414 202.787176,89.9968933 203.005475,84.5732853 C203.223775,79.1609764 206.607414,74.8729363 210.55978,75.0028769 C214.517891,75.1328175 219.205581,80.799358 218.993027,86.2173165" id="Fill-131" fill="#FBCA8F"></path>
                    <path d="M285.982568,85.8474759 C285.660483,92.1034574 280.812253,98.2957796 275.229443,97.9890571 L269.318897,97.6649729 C263.736087,97.3524632 259.695895,91.2990343 260.01798,85.0546272 L260.130992,84.1402469 C260.453078,77.8900526 264.911415,74.7186577 270.488575,75.0195929 L276.399121,75.3552515 C281.97628,75.661974 286.310304,79.5972816 285.982568,85.8474759" id="Fill-133" fill="#FBCA8F"></path>
                    <path d="M287.978513,85.4649264 L286.164723,85.3695273 L284.350934,85.2685165 C284.180029,89.8420596 280.745406,94.50539 277.244626,95.1731835 C276.753966,95.2798059 276.268818,95.3190879 275.772645,95.2910293 L270.006006,94.9767736 C266.67613,94.8364809 263.748706,91.7275939 262.883159,87.653493 C262.68469,86.7219493 262.596481,85.7399001 262.640585,84.7690744 L262.750846,83.8768126 L262.756359,83.8094721 C263.04855,79.7129243 265.066323,77.692709 268.241833,76.9126814 C269.068789,76.7331067 269.978441,76.6601545 270.943222,76.7162716 L276.715374,77.036139 C280.618606,77.2942776 283.424743,79.409892 284.185542,82.8947635 C284.334394,83.6130623 284.400551,84.4043133 284.350934,85.2685165 L286.164723,85.3695273 L287.978513,85.4649264 C288.04467,84.2920791 287.956461,83.1641256 287.73594,82.1147359 C286.627819,76.8285058 282.063022,73.5793261 276.913844,73.3436343 L271.147205,73.0237669 C269.879206,72.9508146 268.649798,73.0462137 267.481034,73.3043523 C262.927264,74.2246727 259.36584,78.0574701 259.134293,83.5737803 L259.018519,84.4323719 L259.024032,84.4997124 C258.946849,85.8352992 259.05711,87.1596626 259.332762,88.4335206 C260.446396,93.7029156 264.349628,98.3269641 269.807536,98.6692783 L275.579688,98.9891458 C276.406644,99.0284277 277.222574,98.9610872 278.005426,98.7871242 C283.667317,97.4347023 287.60914,91.5424075 287.978513,85.4649264" id="Fill-135" fill="#8C2A11"></path>
                    <path d="M225.031213,82.1864018 C224.600542,88.405454 228.674915,95.1432409 234.262302,95.5524649 L240.184026,95.97898 C245.777079,96.3824403 250.531458,90.9184352 250.973463,84.7051467 L250.967796,83.7829518 C251.404134,77.5638995 247.358095,73.8635923 241.770707,73.4543683 L235.843317,73.0336168 C230.25593,72.6243928 225.473217,75.9673495 225.031213,82.1864018" id="Fill-137" fill="#FBCA8F"></path>
                    <path d="M241.518682,93.1706061 C244.923584,92.4827731 248.024476,88.5515001 248.334013,84.1225267 L248.328485,83.3172588 L248.322958,83.2501532 L248.328485,83.1718632 C248.400342,82.2211998 248.33954,81.3656026 248.173717,80.610664 C247.449623,77.3392632 244.940166,75.4658969 241.054378,75.1247765 L235.272678,74.7109583 C234.294321,74.6438526 233.365712,74.7053662 232.508959,74.8954989 C229.258826,75.6672139 227.009159,77.8705163 226.666458,81.8856715 C226.594601,82.9481777 226.677512,84.0442368 226.904137,85.1179273 C227.788527,89.3008466 230.823091,92.7344194 233.990312,92.8854071 L239.760957,93.2992253 C240.363448,93.3439624 240.943829,93.2936332 241.518682,93.1706061 Z M251.965539,84.3294358 C251.528872,90.2123651 247.709412,95.5304884 242.286996,96.771943 C241.391551,96.9676679 240.457414,97.0459578 239.501168,96.97326 L233.724995,96.5650339 C228.241777,96.0841101 224.488647,91.1630285 223.344468,85.8952345 C223.051513,84.5027921 222.935437,83.0600205 223.034931,81.6284331 L224.847931,81.7570523 L223.034931,81.622841 C223.377632,76.0866243 227.11418,72.2448254 231.735118,71.2941619 C232.956682,71.0313314 234.23352,70.9418572 235.532467,71.0369236 L241.303112,71.4507418 C246.305443,71.7527173 250.688701,74.7668797 251.733387,79.8333568 C251.971067,80.935008 252.048451,82.109357 251.971067,83.3452195 L251.971067,84.1896324 L251.976594,84.2679223 L251.965539,84.3294358 Z" id="Fill-139" fill="#8C2A11"></path>
                    <path d="M254.739008,83.0043214 C254.739008,83.0043214 254.733935,83.0043214 254.728861,83.0043214 C253.308343,83.05252 252.552424,83.5482767 251,85.0562035 C251.050733,85.4417921 251.121759,85.8273807 251.162345,86.2129693 C251.304397,87.0116885 251.426156,87.3766205 251.558061,88.1822252 C252.882187,87.3146509 253.704059,87.1425132 254.703495,87.1012001 L254.82018,87.1356277 C256.494363,87.0805436 257.874295,88.1546832 259.015784,90 L260,85.9788619 C258.579481,83.6791014 256.687148,82.9354663 254.739008,83.0043214" id="Fill-141" fill="#8C2A11"></path>
                    <path d="M223.494489,76.9782306 C223.015583,76.1017638 224.877993,76.6640255 222.041809,76.0135658 C222.036488,76.0080535 211.058913,73.0754725 211.053592,73.0699601 C210.59065,72.9652251 210.244774,72.9872745 210,73.0754725 C210.111745,73.1305962 210.22881,73.1746951 210.340555,73.2353312 C210.904599,73.6101724 211.473964,73.9850136 212.04333,74.3598547 C212.841505,75.0213392 213.469403,75.7765339 213.921703,76.5868524 C214.36336,77.1491141 215.204105,78.2240263 215.443558,78.8358994 C216.608894,79.1501045 216.401368,79.3154757 217.736982,79.7178787 C220.190042,80.4510239 221.584189,80.9306002 224,82 L223.494489,76.9782306 Z" id="Fill-143" fill="#8C2A11"></path>
                    <path d="M275.989522,86.6794248 C275.83597,89.1610007 274.140756,91.1009409 272.218285,90.9959298 C270.289672,90.8964457 268.852425,88.8072794 269.012119,86.3257035 C269.171813,83.8386007 270.854743,81.9041874 272.789498,82.0036715 C274.711969,82.0976287 276.136932,84.192322 275.989522,86.6794248" id="Fill-145" fill="#8C2A11"></path>
                    <path d="M241.988765,84.6741049 C241.829191,87.1613179 240.147526,89.0958168 238.214225,88.9963283 C236.287062,88.8968398 234.863171,86.8075809 235.01047,84.320368 C235.176181,81.8386822 236.857846,79.9041832 238.785009,80.0036718 C240.706035,80.0976331 242.142201,82.1924191 241.988765,84.6741049" id="Fill-147" fill="#8C2A11"></path>
                    <path d="M288.365593,111.943268 C287.875711,114.217402 272.827672,47.3928389 231.833148,42.6132067 C224.715443,41.7836837 239.596346,27.2416385 254.615568,29.1771921 C256.235062,29.3859835 273.876597,32.2582773 283.645431,43.7982395 C290.607526,52.0201098 295.806045,77.4813857 288.365593,111.943268" id="Fill-149" fill="#904C11"></path>
                    <path d="M269.996417,81.9520956 C270.33678,83.1897482 246.332516,60.1238728 240.061755,50.0241603 C238.129184,46.9241907 238.821448,39.445733 242.248157,39.0137222 C242.617364,38.9670183 246.753643,38.7743648 250.947611,43.8826009 C253.930116,47.5196651 264.942887,63.1771385 269.996417,81.9520956" id="Fill-151" fill="#904C11"></path>
                    <path d="M258.152156,89.0003328 C258.656687,89.1913128 257.196514,88.8889278 256.798825,89.1223478 C260.757912,91.8491186 264.438024,95.7854297 263.500189,97.1965601 C262.07563,99.3450857 258.164027,98.5652504 253,97.5679102 C253.118713,97.7535852 253.249298,97.9074303 253.397689,97.9870053 C255.332716,99.0108706 263.886007,101.567881 265.70232,98.6395205 C267.815416,95.2496245 257.980022,88.9472828 258.152156,89.0003328" id="Fill-153" fill="#D38353"></path>
                    <path d="M113.816724,108.718363 C113.610538,108.587243 113.41008,108.463024 113.209622,108.338805 C112.62543,107.952346 112.029782,107.565887 111.405498,107.241537 C111.382589,107.248438 110.993127,107.096615 110.764032,107.006901 C110.695304,107.006901 110.597938,107.006901 110.466208,107 C109.378007,108.387113 106.319588,109.781126 103.862543,109.732819 C101.817869,109.698314 97.7399771,108.69766 97.2130584,107.041406 C96.4398625,107.703908 95.672394,108.359508 94.8705613,108.987505 C94.5841924,109.249745 94.2920962,109.511985 94,109.781126 C94.6357388,111.299359 100.162658,113.838948 103.180985,113.894157 C103.19244,113.894157 103.072165,114.018376 103.862543,113.997672 C107.482245,113.894157 112.224513,111.603005 114,109.063416 L113.816724,108.718363 Z" id="Fill-155" fill="#DE7563"></path>
                </g>
                <g id="Page-1" transform="translate(328.000000, 475.000000)" fill="#E2E1E8">
                    <path d="M116.999924,10.4914053 C116.948342,16.0091691 90.7216686,20.2626794 58.4082983,19.9873531 C26.1063908,19.7232646 -0.0515060231,15.0314798 7.61572713e-05,9.51371598 C0.0459269842,3.9959522 26.2783314,-0.257558161 58.5917017,0.0121492333 C90.8936092,0.287475532 117.051506,4.97926041 116.999924,10.4914053" id="Fill-1"></path>
                </g>
                <g id="Page-1" transform="translate(283.000000, 58.000000)">
                    <path d="M105.865801,6.01312737 C90.5198804,5.10667674 87.1911062,51.3282292 99.5191683,87.2816278 C111.849698,123.235026 118.944009,137.901695 117.633721,150.505321 C116.320965,163.106471 140.384868,124.941432 141.769184,103.706711 C143.151033,82.4769441 138.109754,45.2034958 132.478721,31.7999143 C125.095702,14.2207159 113.517787,6.46635269 105.865801,6.01312737" id="Fill-1" fill="#543824"></path>
                    <path d="M138.578393,259.125823 C137.113631,260.655789 125,275.67086 125,275.67086 L126.873058,277.667842 L135.528932,271.397171 L128.077531,288.730299 L132.497335,290 C132.497335,290 141.040928,282.080176 146.073175,273.464693 C151.105423,264.851641 150.283727,246.920149 138.578393,259.125823" id="Fill-3" fill="#F1B886"></path>
                    <path d="M150.376899,193.006607 C144.884093,193.52692 143.108511,204.859284 141.435122,208.971996 L137,259.78839 L145.803819,260 L156,211.934543 C156,211.934543 154.809466,192.590855 150.376899,193.006607" id="Fill-5" fill="#F1B886"></path>
                    <path d="M1.15693396,176.340465 L44.9209497,196 L53,189.272016 L7.35585956,162 C7.35585956,162 -3.48851994,167.42057 1.15693396,176.340465" id="Fill-7" fill="#FBCA8F"></path>
                    <path d="M132,137.378669 L146.983454,211 L156,208.855982 L143.55961,137.391208 C143.55961,137.391208 132.720407,125.269354 132,137.378669" id="Fill-9" fill="#F1B886"></path>
                    <path d="M57.8350171,111.183399 L3,164.893055 L5.65188829,178 L12.9967391,175.970361 L64.9787768,126.439227 C64.9787768,126.439227 65.7605183,109.037 57.8350171,111.183399" id="Fill-11" fill="#FBCA8F"></path>
                    <g id="Group-15" transform="translate(100.000000, 110.000000)">
                        <mask id="mask-6" fill="white">
                            <use xlink:href="#path-5"></use>
                        </mask>
                        <g id="Clip-14"></g>
                        <path d="M1.71831858,10.8618881 C1.71831858,10.8618881 14.7961683,8.76800052 29.0133951,0.707394457 C45.0796109,-8.40138565 58.4697899,92.1372054 58.4697899,92.1372054 C58.4697899,92.1372054 47.7281628,93.4363507 44.0626669,94.6050894 C40.397171,95.773828 28.8010112,48.8840326 25.7401847,50.6580549 C23.5738691,51.9129112 21.8747981,74.6208884 21.8747981,74.6208884 C21.8747981,74.6208884 -5.07046967,21.0040793 1.71831858,10.8618881" id="Fill-13" fill="#CE1F33" mask="url(#mask-6)"></path>
                    </g>
                    <path d="M97.4744346,121.486389 C97.4744346,121.486389 69.3348328,117.917404 66.436439,104.31912 C65.2835004,98.9104256 4,164.045657 4,164.045657 C4,164.045657 17.6747899,168.415279 21.3261735,170.337813 C24.9824948,172.257836 65.6513544,154.164438 64.5774181,156.453407 C63.5010129,158.742376 66.7647919,176 66.7647919,176 C66.7647919,176 102.735488,133.034139 97.4744346,121.486389" id="Fill-16" fill="#CE1F33"></path>
                    <path d="M101.896715,382 L95,392.68597 C95,392.68597 109.227694,405.058167 120.121118,414.633874 C121.095147,415.479438 132.781042,421.150845 133.983245,421.952293 C134.738914,422.457181 136,418.788167 136,418.788167 C136,418.788167 111.207648,388.992448 112.429478,389.742426 C113.648854,390.499758 101.896715,382 101.896715,382" id="Fill-18" fill="#735053"></path>
                    <path d="M103.055849,381 L97,389.993061 C97,389.993061 111.416137,401.685741 122.453568,410.720111 C123.442576,411.521978 135.025667,417.176356 136.231478,417.949064 C136.989068,418.435044 138,415.283463 138,415.283463 C138,415.283463 112.427069,387.677366 113.64506,388.408766 C114.860614,389.142596 103.055849,381 103.055849,381" id="Fill-20" fill="#FBCA8F"></path>
                    <path d="M130.989905,407.981328 C131.652237,408.720961 99.5012455,387.249554 100.005879,385.718856 C100.515365,384.193056 105.70727,377 105.70727,377 C105.70727,377 126.016351,402.360605 130.989905,407.981328" id="Fill-22" fill="#FBCA8F"></path>
                    <path d="M113,404.664245 C113,404.664245 125.876925,400.994203 127.067555,402.269004 C128.253009,403.541143 133,408.637684 133,408.637684 C133,408.637684 122.103145,410.088135 120.990164,411.783434 C119.872007,413.478732 113,404.664245 113,404.664245" id="Fill-24" fill="#735053"></path>
                    <path d="M93.229766,212.460115 L105,407.317733 L95.9749393,409 L67,218.357974 C67,218.357974 88.2447257,199.706646 93.229766,212.460115" id="Fill-26" fill="#BCC9D1"></path>
                    <path d="M152,313.050382 L126.660019,227.716736 C126.660019,227.716736 93.1720929,221.145218 94.0156742,233.716604 L134.530107,319.641613 C140.21239,321.134804 150.220219,317.773892 152,313.050382" id="Fill-28" fill="#BCC9D1"></path>
                    <path d="M66.6511025,105.470058 C66.6511025,105.470058 86.748921,101.078266 99.1379872,102.176214 C111.542208,103.279108 132.145187,108.800996 133.496492,109.359861 C135.794974,110.319329 129.846706,146.252402 132.574574,172.341034 C135.418629,199.495467 138,246 138,246 C138,246 61.4555247,243.153743 61.0892832,240.564662 C60.2633454,234.624862 65.4538716,182.479744 64.9057723,164.541646 C64.2844246,144.395287 68.0857589,114.241279 66.6511025,105.470058" id="Fill-30" fill="#FEFEFE"></path>
                    <path d="M131.693186,144.800862 L65.8505838,144.297966 C65.7578336,146.044343 65.6675902,147.793222 65.5773468,149.532093 C87.5666601,149.334437 109.545946,148.991667 131.527739,148.6539 C131.575368,147.355376 131.633023,146.074366 131.693186,144.800862 Z M67.0187347,116.501049 C74.5039251,116.435998 81.9790883,116.368444 89.4341975,116.345927 C104.106274,116.295887 118.78587,116.360938 133.465466,116.4385 C133.520615,114.722146 133.510588,113.378587 133.40029,112.5079 L66.9786266,112 C67.0187347,113.348563 67.0312686,114.857253 67.0187347,116.501049 Z M132.700904,128.65313 L66.6677881,128.150234 C66.6076258,129.493793 66.5449568,130.867376 66.4747675,132.265979 C88.4741078,132.053311 110.470941,131.825632 132.480309,131.733059 C132.555512,130.677226 132.628208,129.651417 132.700904,128.65313 Z M132.294808,177.534171 C109.631176,177.559191 87.0678145,177.521661 64.5069596,177.268962 C64.449304,178.482419 64.3816215,179.743413 64.3114322,181.041937 L132.68085,181.564849 C132.553005,180.191266 132.422653,178.842703 132.294808,177.534171 Z M131.502672,167.421197 C131.412428,165.434631 131.362293,163.418041 131.339732,161.391443 C114.195989,161.971901 97.0397124,162.494813 79.8608747,162.735003 C74.9125272,162.805058 69.9566594,162.850093 65.0032984,162.897631 C64.9556699,164.348775 64.9155617,165.764892 64.8904941,167.123463 L101.937925,167.406186 C111.779471,167.431205 121.633551,167.428703 131.502672,167.421197 Z M133.92671,196.306472 C133.746223,194.049693 133.568243,191.812929 133.38525,189.618699 L63.8577083,189.085779 C63.7474108,190.994784 63.629593,192.943821 63.5092684,194.917878 C71.4030609,195.28817 79.3545089,195.635944 87.3560921,195.94869 L133.92671,196.306472 Z M127.078237,224.76391 C130.033709,224.76391 132.986675,224.77642 135.937133,224.781424 C135.819315,222.957486 135.698991,221.076002 135.568639,219.154487 L62.0453196,218.591543 C61.9224883,220.670683 61.8021637,222.692277 61.694373,224.6238 C83.5458144,224.471179 105.670493,224.766412 127.078237,224.76391 Z M136.601425,235.314729 L105.550168,235.077042 C98.1853025,235.147097 90.8129164,235.199638 83.4555709,235.132085 C76.0606241,235.059528 68.6155419,234.934429 61.1754733,234.874382 C61.0676826,237.436402 61.0050135,239.608114 61,241.244404 C62.2032456,241.314459 63.4039844,241.382013 64.60723,241.447064 L137,242 C136.887196,240.060971 136.754337,237.809196 136.601425,235.314729 Z M134.585989,205.063377 C110.536117,205.401143 86.5564351,205.613811 62.8900983,204.908255 C62.7998549,206.321869 62.7121182,207.727978 62.6243816,209.129083 L134.919388,209.682019 C134.80909,208.148309 134.698793,206.607094 134.585989,205.063377 Z" id="Fill-32" fill="#A5BCCC"></path>
                    <path d="M80,103.647489 C80,103.647489 80.8367741,114.650901 98.5349161,118.547943 C123.539404,124.057207 135,112.114171 135,112.114171 C129.320303,107.889647 128.715555,107.141475 97.0662418,102 L80,103.647489 Z" id="Fill-34" fill="#FBCA8F"></path>
                    <path d="M66.8374271,190.149369 C66.486193,189.11828 48.3485711,189 48.3485711,189 L43,195.405096 L62.8937921,211 C62.8937921,211 67.9608594,193.420056 66.8374271,190.149369" id="Fill-36" fill="#FBCA8F"></path>
                    <path d="M64.0815789,21.0587683 C64.8358913,18.8253081 37.9857859,80.7822341 50.1817243,116.611378 C62.3776628,152.435586 67.7530544,150.335393 66.4568087,162.892128 C65.1581219,175.448863 89.3595898,128.689338 90.7290697,107.53193 C92.0985496,86.3769902 88.1805189,57.2358875 81.1427106,44.6075828 C74.1073433,31.9768101 61.6404383,28.314429 64.0815789,21.0587683" id="Fill-38" fill="#543824"></path>
                    <polygon id="Fill-40" fill="#FBCA8F" points="91 107.503817 92.4913982 65.2717346 106.376916 64 107 104.235784 98.3894276 118"></polygon>
                    <path d="M57.0882081,46.1566329 C55.7377899,67.3245902 70.0502152,90.7540393 89.2221382,91.9327712 C114.588917,93.4880082 128.572523,67.7527725 129.925451,46.587276 C131.278379,25.4143971 114.041721,9.39693209 92.4475796,8.06809032 C70.855948,6.74170936 58.4386264,24.9837539 57.0882081,46.1566329" id="Fill-42" fill="#FBCA8F"></path>
                    <path d="M110.982969,55.2041888 C110.799499,57.9670591 109.08802,60.1092298 107.160211,59.9956871 C105.235139,59.8871909 103.830358,57.5658752 104.016567,54.8030049 C104.205514,52.0426578 105.914254,49.8954408 107.839325,50.003937 C109.767135,50.1149565 111.171917,52.4438417 110.982969,55.2041888" id="Fill-44" fill="#372933"></path>
                    <path d="M76.9829693,57.2054097 C76.7994988,59.9676808 75.0880201,62.1068643 73.1602106,61.9958689 C71.2351393,61.8848736 69.8303577,59.5640613 70.0165665,56.8017902 C70.2055138,54.0420417 71.9142541,51.897813 73.8393253,52.0037631 C75.7671349,52.1172811 77.1719166,54.4456612 76.9829693,57.2054097" id="Fill-46" fill="#372933"></path>
                    <path d="M123.536767,52.60121 C122.38069,57.6183867 122.98386,61.186659 126.409763,61.8998112 C129.83302,62.6104524 136.491704,59.4791113 137.653072,54.4619346 C138.811794,49.4397358 136.973182,44.7942018 133.549925,44.0785384 C130.129314,43.3678973 124.695489,47.5815222 123.536767,52.60121" id="Fill-48" fill="#FBCA8F"></path>
                    <path d="M57.0001017,40.8096186 C56.9359924,42.9642254 87.2005196,26.2460276 89.5528382,20.182106 C91.9100883,14.1157609 93.7519982,5.3931175 92.6941945,4.34126221 C91.6363909,3.29183054 75.2342697,4.16433724 65.4921199,14.1811989 C58.5510539,21.3187884 57.1480463,35.707878 57.0001017,40.8096186" id="Fill-50" fill="#543824"></path>
                    <path d="M129.517333,44.8460557 C129.150881,46.9333851 93.3797083,27.2067574 91.0175778,21.2550145 C88.6554473,15.3032715 91.0027216,5.43499378 92.0698896,4.40001596 C93.1370576,3.37000206 111.595844,3.67031936 121.386058,13.4889579 C128.361028,20.4856065 131.228269,35.1887447 129.517333,44.8460557" id="Fill-52" fill="#543824"></path>
                    <path d="M85.8770132,58.000295 C85.3951056,58.1591279 86.764335,57.9473507 87.1136542,58.2145934 C83.2660431,60.7332289 79.5816177,64.5174851 80.3414507,66.0175733 C81.496499,68.2992201 85.163076,67.7571714 90,67.0739379 C89.8776108,67.2554612 89.7475722,67.4016883 89.602235,67.477323 C87.7434488,68.4000664 79.6657603,70.4522879 78.2021892,67.3462229 C76.5065885,63.7485323 86.037649,57.9523931 85.8770132,58.000295" id="Fill-54" fill="#E09769"></path>
                    <path d="M89.9807177,81.9935501 C86.3505088,81.9309417 82.3500803,81.1627848 78,79.5951668 L79.3677558,76.2672897 C83.3810391,77.7120989 86.9418318,78.3718951 90.0552758,78.4296874 C94.0428495,78.4947038 97.2899839,77.5868821 99.9483664,76 L102,79.0100191 C98.7014462,80.9797756 94.6521693,82.0754226 90.0115694,81.9959581 C90.0012855,81.9959581 89.9910016,81.9935501 89.9807177,81.9935501" id="Fill-56" fill="#DE7563"></path>
                    <path d="M99.3023161,391.454471 C100.079768,388.744486 124.923132,327.063957 133.046254,319.48686 C141.171885,311.907295 147.639786,309.555187 150.491281,309.022075 C153.342775,308.486495 154.32086,317.801141 150.426075,325.573219 C146.528782,333.34036 110.798579,387.340132 107.086871,391.143489 C103.377671,394.949314 97.6144922,397.335976 99.3023161,391.454471" id="Fill-58" fill="#BCC9D1"></path>
                    <path d="M106.59854,407 L108,421.086405 C108,421.086405 88.7842593,425.999488 74.0277095,429.859767 C72.7111865,430.195219 59.0613155,429.800417 57.5524352,429.973304 C56.6031396,430.084261 57.1652225,425.816279 57.1652225,425.816279 C57.1652225,425.816279 94.5499807,409.121089 93.0460967,409.239787 C91.5497071,409.358486 106.59854,407 106.59854,407" id="Fill-60" fill="#735053"></path>
                    <path d="M106.585725,406 L108,418.279731 C108,418.279731 88.7873476,422.538173 74.0349091,425.884091 C72.7130866,426.172533 59.0625832,425.813292 57.5558555,425.960135 C56.6063422,426.057156 57.1610579,422.336264 57.1610579,422.336264 C57.1610579,422.336264 94.5369006,407.832913 93.0326716,407.932556 C91.5334401,408.037444 106.585725,406 106.585725,406" id="Fill-62" fill="#FBCA8F"></path>
                    <path d="M67.0170474,419.977891 C66.0597533,420.348664 105.737524,415.957009 105.973803,414.233416 C106.212518,412.514834 104.741256,403 104.741256,403 C104.741256,403 74.2150223,417.09438 67.0170474,419.977891" id="Fill-64" fill="#FBCA8F"></path>
                    <path d="M79,426.92095 C79,426.92095 68.9129544,417.449947 67.2590886,418.025181 C65.6052227,418.595325 59,420.888626 59,420.888626 C59,420.888626 68.2780338,427.414735 68.5340502,429.471325 C68.7926267,431.527914 79,426.92095 79,426.92095" id="Fill-66" fill="#735053"></path>
                    <polygon id="Fill-68" fill="#735053" points="95.2245413 408 106 406.764368 105.634174 403.114943 95 403"></polygon>
                    <polygon id="Fill-70" fill="#735053" points="117 380.361596 105.996126 375 104 378.503741 114.004486 385"></polygon>
                    <path d="M56.0040032,52.0496817 C56.3638153,49.4989644 54.7914857,32.8932238 70.5640709,16.5880058 C77.0653334,9.86970955 92,12.5123222 92,12.5123222 L85.9349481,50.4204017 C85.9349481,50.4204017 55.5998307,54.9034053 56.0040032,52.0496817" id="Fill-72" fill="#543824"></path>
                    <path d="M89.3399049,18.4417526 L88.0731143,19.2951409 C87.229393,22.7062485 93.9308121,31.6582664 95.6714404,32.9420166 C111.288744,44.4566444 121,50 121,50 C121,50 95.248371,5.22034838 89.3399049,18.4417526" id="Fill-74" fill="#543824"></path>
                    <path d="M60.226417,17.8382377 C60.226417,17.8382377 60.9867254,3.38418762 65.5534031,0.342372347 C70.1224945,-2.70185516 79,15.5562732 79,15.5562732 L62.5097559,22.9111461 C62.5097559,22.9111461 59.4661087,35.0784072 56.4200478,36.8562168 C53.3739868,38.6316141 41.1969843,23.4177133 43.226887,21.3890324 C45.2567897,19.3603515 55.4063032,18.8513721 60.226417,17.8382377" id="Fill-76" fill="#CE1F33"></path>
                </g>
            </g>
        </g>
    </g>
</svg>