<?xml version="1.0" encoding="UTF-8" standalone="no"?>
<svg width="16px" height="10px" viewBox="0 0 16 10" version="1.1" xmlns="http://www.w3.org/2000/svg" xmlns:xlink="http://www.w3.org/1999/xlink">
    <!-- Generator: Sketch 49.3 (51167) - http://www.bohemiancoding.com/sketch -->
    <title>Group 8</title>
    <desc>Created with Sketch.</desc>
    <defs></defs>
    <g id="ent_23_04_18" stroke="none" stroke-width="1" fill="none" fill-rule="evenodd">
        <g id="01desktop_01home" transform="translate(-57.000000, -490.000000)" fill="#363636">
            <g id="Group-17" transform="translate(51.000000, 376.000000)">
                <g id="Group-14" transform="translate(0.000000, 105.000000)">
                    <g id="Group-8" transform="translate(6.000000, 9.000000)">
                        <path d="M0.0135525316,4.74989266 C0.0574711107,2.17410942 2.47316655,-0.0817641618 5.10081688,0.0041690176 C6.35970042,-0.0530063255 7.54324537,0.484033505 8.5075446,1.23837367 C8.09613341,1.69662724 7.66996696,2.13837483 7.21446359,2.55136459 C6.05539501,1.76588428 4.40662558,1.54160719 3.24755699,2.44875527 C1.58906646,3.57303352 1.51372787,6.22760302 3.10868402,7.43781445 C4.65989517,8.8176801 7.5920245,8.1324268 8.02062123,6.01983191 C7.04885757,6.00553807 6.07483722,6.01983191 5.10324715,5.98886193 C5.10081688,5.42068196 5.0983866,4.85250199 5.10081688,4.28432201 C6.72510994,4.2795574 8.349403,4.27717509 9.97612634,4.28908662 C10.073511,5.6259006 9.89332333,7.04864776 9.05557209,8.15403772 C7.78679385,9.90384145 5.23951626,10.4146759 3.25241755,9.66510036 C1.258028,8.92028942 -0.154483771,6.85534064 0.0135525316,4.74989266" id="Fill-186"></path>
                        <path d="M12.6749832,3 L14.327789,3 C14.3305612,3.55284939 14.3333333,4.10827294 14.3388777,4.66112233 C14.8917271,4.66666667 15.4471506,4.66666667 16,4.672211 L16,6.32501683 C15.4471506,6.33056117 14.8944992,6.33333333 14.3388777,6.33887767 C14.3333333,6.89449923 14.3305612,7.44734862 14.327789,8 L12.672211,8 C12.6666667,7.44734862 12.6666667,6.89449923 12.6611223,6.34164984 C12.1082729,6.3361055 11.5526514,6.33056117 11,6.32501683 L11,4.672211 C11.5526514,4.66666667 12.1055008,4.6638945 12.6611223,4.66112233 C12.6638945,4.10550077 12.6694388,3.55284939 12.6749832,3" id="Fill-187"></path>
                    </g>
                </g>
            </g>
        </g>
    </g>
</svg>