<?xml version="1.0" encoding="UTF-8" standalone="no"?>
<svg width="12px" height="11px" viewBox="0 0 12 11" version="1.1" xmlns="http://www.w3.org/2000/svg" xmlns:xlink="http://www.w3.org/1999/xlink">
    <!-- Generator: Sketch 49.3 (51167) - http://www.bohemiancoding.com/sketch -->
    <title>Group 2</title>
    <desc>Created with Sketch.</desc>
    <defs></defs>
    <g id="ent_23_04_18" stroke="none" stroke-width="1" fill="none" fill-rule="evenodd">
        <g id="01desktop_01home" transform="translate(-60.000000, -454.000000)" fill="#363636">
            <g id="Group-17" transform="translate(51.000000, 376.000000)">
                <g id="Group-12" transform="translate(0.000000, 70.000000)">
                    <g id="Group-2" transform="translate(9.000000, 8.000000)">
                        <path d="M1.500401,3 C2.32859562,3 3,2.32919619 3,1.50080625 C3,0.671683362 2.32859562,0 1.500401,0 C0.671404384,0 0,0.671683362 0,1.50080625 C0,2.32919619 0.671404384,3 1.500401,3" id="Fill-182"></path>
                        <polygon id="Fill-183" points="0 11 3 11 3 4 0 4"></polygon>
                        <path d="M6.67056459,6.78557459 C6.67056459,5.89618053 7.08914838,5.02644379 8.09002874,5.02644379 C9.09090909,5.02644379 9.33700978,5.89618053 9.33700978,6.76431258 L9.33700978,11 L12,11 L12,6.59114083 C12,3.52807355 10.1988937,3 9.09090909,3 C7.98385463,3 7.37325382,3.37643126 6.67056459,4.2885583 L6.67056459,3.2444463 L4,3.2444463 L4,11 L6.67056459,11 L6.67056459,6.78557459 Z" id="Fill-184"></path>
                    </g>
                </g>
            </g>
        </g>
    </g>
</svg>