<?xml version="1.0" encoding="UTF-8"?>
<svg width="64px" height="64px" viewBox="0 0 64 64" version="1.1" xmlns="http://www.w3.org/2000/svg" xmlns:xlink="http://www.w3.org/1999/xlink">
    <defs></defs>
    <g id="Page-1" stroke="none" stroke-width="1" fill="none" fill-rule="evenodd">
        <g id="711160" transform="translate(10.000000, 1.000000)" fill="#FFFFFF" fill-rule="nonzero">
            <path d="M22.5,-1.19230769 C35.5697268,-1.19230769 46.2040134,9.28692975 46.2040134,22.1721445 L46.2040134,39.8962734 C46.2040134,52.7446373 35.568922,63.1923077 22.5,63.1923077 C9.42966985,63.1923077 -1.20401338,52.7138191 -1.20401338,39.8284609 L-1.20401338,22.1721445 C-1.20401338,9.2866812 9.42977668,-1.19230769 22.5,-1.19230769 Z M39.5639288,39.8962734 L39.5639288,22.1721445 C39.5639288,12.8690297 31.9087527,5.29823347 22.5,5.29823347 C13.0917301,5.29823347 5.43607125,12.8692929 5.43607125,22.1721445 L5.43607125,39.8278555 C5.43607125,49.1307071 13.0917301,56.7017665 22.5,56.7017665 C31.909715,56.7017665 39.5639288,49.160644 39.5639288,39.8962734 Z" id="Shape"></path>
            <path d="M22.5,15.5 C24.1941402,15.5 25.5283377,16.9268913 25.5283377,18.6433776 L25.5283377,25.472007 C25.5283377,27.1884933 24.1941402,28.6153846 22.5,28.6153846 C20.8058598,28.6153846 19.4716623,27.1884933 19.4716623,25.472007 L19.4716623,18.6433776 C19.4716623,16.9268913 20.8058598,15.5 22.5,15.5 Z" id="Shape"></path>
        </g>
    </g>
</svg>
