<?xml version="1.0" encoding="UTF-8" standalone="no"?>
<svg width="12px" height="10px" viewBox="0 0 12 10" version="1.1" xmlns="http://www.w3.org/2000/svg" xmlns:xlink="http://www.w3.org/1999/xlink">
    <!-- Generator: Sketch 49.3 (51167) - http://www.bohemiancoding.com/sketch -->
    <title>Shape</title>
    <desc>Created with Sketch.</desc>
    <defs></defs>
    <g id="ent_23_04_18" stroke="none" stroke-width="1" fill="none" fill-rule="evenodd">
        <g id="01desktop_01home" transform="translate(-59.000000, -386.000000)" fill="#363636">
            <g id="Group-17" transform="translate(51.000000, 376.000000)">
                <g id="Group-9">
                    <path d="M18.585957,11.581156 C19.094574,11.2689214 19.4845624,10.7743418 19.6684733,10.1843433 C19.192741,10.4738472 18.6660983,10.6839187 18.1051093,10.7973223 C17.656172,10.3067393 17.0162597,10 16.308142,10 C14.9486633,10 13.8464162,11.1302893 13.8464162,12.5246041 C13.8464162,12.7221861 13.8680957,12.9147724 13.9102369,13.0998651 C11.8640765,12.9944547 10.0498143,11.9895589 8.8355155,10.4621072 C8.62359174,10.8347904 8.50228366,11.2684218 8.50228366,11.7315282 C8.50228366,12.6072838 8.93684916,13.3801269 9.59746666,13.8327422 C9.19408075,13.8195034 8.81432312,13.70585 8.48230924,13.5167607 C8.48206565,13.5272518 8.48206565,13.5379927 8.48206565,13.5487336 C8.48206565,14.7716941 9.33073504,15.7918269 10.4570976,16.0241295 C10.2505328,16.0815807 10.0330065,16.1125543 9.80841605,16.1125543 C9.64959503,16.1125543 9.49540223,16.0968177 9.34510687,16.067093 C9.65860788,17.0699905 10.5676877,17.8001199 11.644845,17.8203527 C10.8022654,18.4975271 9.74094148,18.901184 8.58729675,18.901184 C8.38877048,18.901184 8.19268011,18.8891942 8,18.8657141 C9.08982401,19.582355 10.3837769,20 11.773948,20 C16.3025394,20 18.7786371,16.1532697 18.7786371,12.8171055 C18.7786371,12.7076985 18.7764448,12.5985412 18.7718166,12.4901334 C19.2526643,12.1349353 19.6701784,11.6900634 20,11.1837438 C19.5588576,11.3848229 19.0840996,11.5204576 18.585957,11.581156 Z" id="Shape"></path>
                </g>
            </g>
        </g>
    </g>
</svg>